<svg xmlns="http://www.w3.org/2000/svg" xmlns:xlink="http://www.w3.org/1999/xlink" xmlns:lucid="lucid" width="1542" height="844.5"><g transform="translate(1860.8542001070098 -88.93161449973223)" lucid:page-tab-id="xTGjKDcShCaP"><path d="M-2000 0H0v1000h-2000z" fill="#fff"/><path d="M-1859.85 95.93a6 6 0 0 1 6-6h308a6 6 0 0 1 6 6v8a14.48 14.48 0 0 1-4.25 10.24l-1.5 1.52a14.48 14.48 0 0 1-10.25 4.23h-298a6 6 0 0 1-6-6z" fill="#ced4db"/><path d="M-1539.85 89.93v20l-10 10h-310" stroke="#000" stroke-width="2" fill="none"/><path d="M-1859.85 95.93a6 6 0 0 1 6-6h1528a6 6 0 0 1 6 6v328a6 6 0 0 1-6 6h-1528a6 6 0 0 1-6-6z" stroke="#000" stroke-width="2" fill="none"/><use xlink:href="#a" transform="matrix(1,0,0,1,-1851.8542001070098,89.93161449973223) translate(0 23.08376736111111)"/><use xlink:href="#b" transform="matrix(1,0,0,1,-1851.8542001070098,89.93161449973223) translate(78.37456597222221 23.08376736111111)"/><use xlink:href="#c" transform="matrix(1,0,0,1,-1851.8542001070098,89.93161449973223) translate(162.5759548611111 23.08376736111111)"/><path d="M-1859.85 598.43a6 6 0 0 1 6-6h308a6 6 0 0 1 6 6v8a14.48 14.48 0 0 1-4.25 10.24l-1.5 1.52a14.48 14.48 0 0 1-10.25 4.23h-298a6 6 0 0 1-6-6z" fill="#ced4db"/><path d="M-1539.85 592.43v20l-10 10h-310" stroke="#000" stroke-width="2" fill="none"/><path d="M-1859.85 598.43a6 6 0 0 1 6-6h1528a6 6 0 0 1 6 6v328a6 6 0 0 1-6 6h-1528a6 6 0 0 1-6-6z" stroke="#000" stroke-width="2" fill="none"/><use xlink:href="#d" transform="matrix(1,0,0,1,-1851.8542001070098,592.4316144997322) translate(0 23.08376736111111)"/><use xlink:href="#e" transform="matrix(1,0,0,1,-1851.8542001070098,592.4316144997322) translate(85.69878472222221 23.08376736111111)"/><use xlink:href="#c" transform="matrix(1,0,0,1,-1851.8542001070098,592.4316144997322) translate(153.75434027777777 23.08376736111111)"/><path d="M-1779.85 161.93a12 12 0 0 1 12-12h276a12 12 0 0 1 12 12v201a12 12 0 0 1-12 12h-276a12 12 0 0 1-12-12z" fill="#fcfcca"/><path d="M-1779.85 189.93h300v38h-300z" fill="#fcfcca"/><path d="M-1779.85 226.93h300v38h-300z" fill="#fcfcca"/><path d="M-1779.85 263.93h300v38h-300z" fill="#fcfcca"/><path d="M-1779.85 300.93h300v38h-300z" fill="#fcfcca"/><path d="M-1779.85 337.93h300v25a12 12 0 0 1-12 12h-276a12 12 0 0 1-12-12z" fill="#fcfcca"/><path d="M-1778.85 189.93h298-298zM-1779.85 161.93a12 12 0 0 1 12-12h276a12 12 0 0 1 12 12v201a12 12 0 0 1-12 12h-276a12 12 0 0 1-12-12zM-1635.42 190.93v183z" stroke="#000" stroke-width="2" fill="none"/><use xlink:href="#f" transform="matrix(1,0,0,1,-1769.8542001070098,149.93161449973223) translate(84.94357638888889 28.08376736111111)"/><use xlink:href="#g" transform="matrix(1,0,0,1,-1774.8542001070098,192.43161449973223) translate(0 24.08376736111111)"/><use xlink:href="#h" transform="matrix(1,0,0,1,-1630.41758589266,192.43161449973223) translate(0 24.08376736111111)"/><use xlink:href="#i" transform="matrix(1,0,0,1,-1774.8542001070098,229.43161449973223) translate(0 24.08376736111111)"/><use xlink:href="#j" transform="matrix(1,0,0,1,-1630.41758589266,229.43161449973223) translate(0 24.08376736111111)"/><use xlink:href="#k" transform="matrix(1,0,0,1,-1774.8542001070098,266.43161449973223) translate(0 24.08376736111111)"/><use xlink:href="#j" transform="matrix(1,0,0,1,-1630.41758589266,266.43161449973223) translate(0 24.08376736111111)"/><use xlink:href="#l" transform="matrix(1,0,0,1,-1774.8542001070098,303.43161449973223) translate(0 24.08376736111111)"/><use xlink:href="#m" transform="matrix(1,0,0,1,-1630.41758589266,303.43161449973223) translate(0 24.08376736111111)"/><use xlink:href="#n" transform="matrix(1,0,0,1,-1774.8542001070098,340.43161449973223) translate(0 24.08376736111111)"/><use xlink:href="#o" transform="matrix(1,0,0,1,-1630.41758589266,340.43161449973223) translate(0 24.08376736111111)"/><path d="M-699.85 198.93a12 12 0 0 1 12-12h276a12 12 0 0 1 12 12v127a12 12 0 0 1-12 12h-276a12 12 0 0 1-12-12z" fill="#fcfcca"/><path d="M-699.85 226.93h300v38h-300z" fill="#fcfcca"/><path d="M-699.85 263.93h300v38h-300z" fill="#fcfcca"/><path d="M-699.85 300.93h300v25a12 12 0 0 1-12 12h-276a12 12 0 0 1-12-12z" fill="#fcfcca"/><path d="M-698.85 226.93h298-298zM-699.85 198.93a12 12 0 0 1 12-12h276a12 12 0 0 1 12 12v127a12 12 0 0 1-12 12h-276a12 12 0 0 1-12-12zM-555.42 227.93v109z" stroke="#000" stroke-width="2" fill="none"/><use xlink:href="#p" transform="matrix(1,0,0,1,-689.8542001070098,186.93161449973223) translate(97.48697916666667 28.08376736111111)"/><use xlink:href="#g" transform="matrix(1,0,0,1,-694.8542001070098,229.43161449973223) translate(0 24.08376736111111)"/><use xlink:href="#h" transform="matrix(1,0,0,1,-550.41758589266,229.43161449973223) translate(0 24.08376736111111)"/><use xlink:href="#i" transform="matrix(1,0,0,1,-694.8542001070098,266.43161449973223) translate(0 24.08376736111111)"/><use xlink:href="#j" transform="matrix(1,0,0,1,-550.41758589266,266.43161449973223) translate(0 24.08376736111111)"/><use xlink:href="#q" transform="matrix(1,0,0,1,-694.8542001070098,303.43161449973223) translate(0 24.08376736111111)"/><use xlink:href="#j" transform="matrix(1,0,0,1,-550.41758589266,303.43161449973223) translate(0 24.08376736111111)"/><path d="M-1239.85 217.43a12 12 0 0 1 12-12h276a12 12 0 0 1 12 12v90a12 12 0 0 1-12 12h-276a12 12 0 0 1-12-12z" fill="#fcfcca"/><path d="M-1239.85 245.43h300v38h-300z" fill="#fcfcca"/><path d="M-1239.85 282.43h300v25a12 12 0 0 1-12 12h-276a12 12 0 0 1-12-12z" fill="#fcfcca"/><path d="M-1238.85 245.43h298-298zM-1239.85 217.43a12 12 0 0 1 12-12h276a12 12 0 0 1 12 12v90a12 12 0 0 1-12 12h-276a12 12 0 0 1-12-12zM-1095.42 246.43v72z" stroke="#000" stroke-width="2" fill="none"/><use xlink:href="#r" transform="matrix(1,0,0,1,-1229.8542001070098,205.43161449973223) translate(52.8689236111111 28.08376736111111)"/><use xlink:href="#s" transform="matrix(1,0,0,1,-1234.8542001070098,247.93161449973223) translate(0 24.08376736111111)"/><use xlink:href="#h" transform="matrix(1,0,0,1,-1090.41758589266,247.93161449973223) translate(0 24.08376736111111)"/><use xlink:href="#t" transform="matrix(1,0,0,1,-1234.8542001070098,284.93161449973223) translate(0 24.08376736111111)"/><use xlink:href="#h" transform="matrix(1,0,0,1,-1090.41758589266,284.93161449973223) translate(0 24.08376736111111)"/><path d="M-724.4 283.4h-173.64v-1.94h173.64zm22.55 0h-2.9v-1.94h2.9z" stroke="#3a414a" stroke-width=".05" fill="#3a414a"/><path d="M-700.85 283.4h-1.03v-1.94h1.03z" fill="#3a414a"/><path stroke="#3a414a" stroke-width=".05" fill="#3a414a"/><path d="M-922.7 286.62l-12.92-4.2 12.9-4.18z" fill="#3a414a"/><path d="M-922.7 279.26l-9.76 3.17 9.75 3.17v2.05l-16.07-5.22 16.05-5.22z" stroke="#3a414a" stroke-width=".05" fill="#3a414a"/><use xlink:href="#u" transform="matrix(1,0,0,1,-922.715167226223,271.6764061663989) translate(0 17.22222222222222)"/><use xlink:href="#v" transform="matrix(1,0,0,1,-724.4003344632263,271.6764061663989) translate(0 17.22222222222222)"/><path d="M-1470.9 283.4h-6.95v-1.94h6.94zm185.14 0h-165.5v-1.94h165.5zm26.4 0h-1.73v-1.94h1.74z" stroke="#3a414a" stroke-width=".05" fill="#3a414a"/><path d="M-1244.1 282.43l-14.26 4.64v-9.27z" fill="#3a414a"/><path d="M-1240.93 282.43l-18.4 5.98v-11.95zm-16.45 3.3l10.14-3.3-10.14-3.3z" stroke="#3a414a" stroke-width=".05" fill="#3a414a"/><path d="M-1477.83 283.4h-1.02v-1.94h1.02z" fill="#3a414a"/><path stroke="#3a414a" stroke-width=".05" fill="#3a414a"/><use xlink:href="#u" transform="matrix(1,0,0,1,-1285.7551097355622,271.6764061663989) translate(0 17.22222222222222)"/><use xlink:href="#v" transform="matrix(1,0,0,1,-1470.9115922637845,271.6764061663989) translate(0 17.22222222222222)"/><path d="M-1239.85 721.93a12 12 0 0 1 12-12h276a12 12 0 0 1 12 12v127a12 12 0 0 1-12 12h-276a12 12 0 0 1-12-12z" fill="#fcfcca"/><path d="M-1239.85 749.93h300v38h-300z" fill="#fcfcca"/><path d="M-1239.85 786.93h300v38h-300z" fill="#fcfcca"/><path d="M-1239.85 823.93h300v25a12 12 0 0 1-12 12h-276a12 12 0 0 1-12-12z" fill="#fcfcca"/><path d="M-1238.85 749.93h298-298zM-1239.85 721.93a12 12 0 0 1 12-12h276a12 12 0 0 1 12 12v127a12 12 0 0 1-12 12h-276a12 12 0 0 1-12-12zM-1095.42 750.93v109z" stroke="#000" stroke-width="2" fill="none"/><use xlink:href="#w" transform="matrix(1,0,0,1,-1229.8542001070098,709.9316144997322) translate(86.10460069444446 28.08376736111111)"/><use xlink:href="#g" transform="matrix(1,0,0,1,-1234.8542001070098,752.4316144997322) translate(0 24.08376736111111)"/><use xlink:href="#h" transform="matrix(1,0,0,1,-1090.41758589266,752.4316144997322) translate(0 24.08376736111111)"/><use xlink:href="#i" transform="matrix(1,0,0,1,-1234.8542001070098,789.4316144997322) translate(0 24.08376736111111)"/><use xlink:href="#j" transform="matrix(1,0,0,1,-1090.41758589266,789.4316144997322) translate(0 24.08376736111111)"/><use xlink:href="#x" transform="matrix(1,0,0,1,-1234.8542001070098,826.4316144997322) translate(0 24.08376736111111)"/><use xlink:href="#y" transform="matrix(1,0,0,1,-1090.41758589266,826.4316144997322) translate(0 24.08376736111111)"/><path d="M-699.85 661.93a12 12 0 0 1 12-12h276a12 12 0 0 1 12 12v201a12 12 0 0 1-12 12h-276a12 12 0 0 1-12-12z" fill="#fcfcca"/><path d="M-699.85 689.93h300v38h-300z" fill="#fcfcca"/><path d="M-699.85 726.93h300v38h-300z" fill="#fcfcca"/><path d="M-699.85 763.93h300v38h-300z" fill="#fcfcca"/><path d="M-699.85 800.93h300v38h-300z" fill="#fcfcca"/><path d="M-699.85 837.93h300v25a12 12 0 0 1-12 12h-276a12 12 0 0 1-12-12z" fill="#fcfcca"/><path d="M-698.85 689.93h298-298zM-699.85 661.93a12 12 0 0 1 12-12h276a12 12 0 0 1 12 12v201a12 12 0 0 1-12 12h-276a12 12 0 0 1-12-12zM-555.42 690.93v183z" stroke="#000" stroke-width="2" fill="none"/><use xlink:href="#z" transform="matrix(1,0,0,1,-689.8542001070098,649.9316144997322) translate(96.22829861111111 28.08376736111111)"/><use xlink:href="#g" transform="matrix(1,0,0,1,-694.8542001070098,692.4316144997322) translate(0 24.08376736111111)"/><use xlink:href="#h" transform="matrix(1,0,0,1,-550.41758589266,692.4316144997322) translate(0 24.08376736111111)"/><use xlink:href="#A" transform="matrix(1,0,0,1,-694.8542001070098,729.4316144997322) translate(0 24.08376736111111)"/><use xlink:href="#B" transform="matrix(1,0,0,1,-550.41758589266,729.4316144997322) translate(0 24.08376736111111)"/><use xlink:href="#o" transform="matrix(1,0,0,1,-694.8542001070098,766.4316144997322) translate(0 24.08376736111111)"/><use xlink:href="#o" transform="matrix(1,0,0,1,-550.41758589266,766.4316144997322) translate(0 24.08376736111111)"/><use xlink:href="#s" transform="matrix(1,0,0,1,-694.8542001070098,803.4316144997322) translate(0 24.08376736111111)"/><use xlink:href="#h" transform="matrix(1,0,0,1,-550.41758589266,803.4316144997322) translate(0 24.08376736111111)"/><use xlink:href="#C" transform="matrix(1,0,0,1,-694.8542001070098,840.4316144997322) translate(0 24.08376736111111)"/><use xlink:href="#h" transform="matrix(1,0,0,1,-550.41758589266,840.4316144997322) translate(0 24.08376736111111)"/><path d="M-750 774.72h-168.98v-1.95h169zm31.64 0h-3.16v-1.95h3.16z" stroke="#3a414a" stroke-width=".05" fill="#3a414a"/><path d="M-938.65 774.72h-.2v-1.95h.2z" fill="#3a414a"/><path stroke="#3a414a" stroke-width=".05" fill="#3a414a"/><path d="M-703.1 773.75l-14.26 4.63v-9.27z" fill="#3a414a"/><path d="M-699.93 773.75l-18.4 5.98v-11.96zm-16.45 3.3l10.13-3.3-10.13-3.3z" stroke="#3a414a" stroke-width=".05" fill="#3a414a"/><use xlink:href="#v" transform="matrix(1,0,0,1,-938.6455144793805,762.992850675057) translate(0 17.22222222222222)"/><use xlink:href="#D" transform="matrix(1,0,0,1,-749.9950907515539,762.992850675057) translate(0 17.22222222222222)"/><path d="M-1779.85 661.93a12 12 0 0 1 12-12h276a12 12 0 0 1 12 12v201a12 12 0 0 1-12 12h-276a12 12 0 0 1-12-12z" fill="#fcfcca"/><path d="M-1779.85 689.93h300v38h-300z" fill="#fcfcca"/><path d="M-1779.85 726.93h300v38h-300z" fill="#fcfcca"/><path d="M-1779.85 763.93h300v38h-300z" fill="#fcfcca"/><path d="M-1779.85 800.93h300v38h-300z" fill="#fcfcca"/><path d="M-1779.85 837.93h300v25a12 12 0 0 1-12 12h-276a12 12 0 0 1-12-12z" fill="#fcfcca"/><path d="M-1778.85 689.93h298-298zM-1779.85 661.93a12 12 0 0 1 12-12h276a12 12 0 0 1 12 12v201a12 12 0 0 1-12 12h-276a12 12 0 0 1-12-12zM-1635.42 690.93v183z" stroke="#000" stroke-width="2" fill="none"/><use xlink:href="#E" transform="matrix(1,0,0,1,-1769.8542001070098,649.9316144997322) translate(33.77712673611114 28.08376736111111)"/><use xlink:href="#g" transform="matrix(1,0,0,1,-1774.8542001070098,692.4316144997322) translate(0 24.08376736111111)"/><use xlink:href="#h" transform="matrix(1,0,0,1,-1630.41758589266,692.4316144997322) translate(0 24.08376736111111)"/><use xlink:href="#F" transform="matrix(1,0,0,1,-1774.8542001070098,729.4316144997322) translate(0 24.08376736111111)"/><use xlink:href="#G" transform="matrix(1,0,0,1,-1630.41758589266,729.4316144997322) translate(0 24.08376736111111)"/><use xlink:href="#H" transform="matrix(1,0,0,1,-1774.8542001070098,766.4316144997322) translate(0 24.08376736111111)"/><use xlink:href="#B" transform="matrix(1,0,0,1,-1630.41758589266,766.4316144997322) translate(0 24.08376736111111)"/><use xlink:href="#C" transform="matrix(1,0,0,1,-1774.8542001070098,803.4316144997322) translate(0 24.08376736111111)"/><use xlink:href="#h" transform="matrix(1,0,0,1,-1630.41758589266,803.4316144997322) translate(0 24.08376736111111)"/><use xlink:href="#s" transform="matrix(1,0,0,1,-1774.8542001070098,840.4316144997322) translate(0 24.08376736111111)"/><use xlink:href="#h" transform="matrix(1,0,0,1,-1630.41758589266,840.4316144997322) translate(0 24.08376736111111)"/><path d="M-1472.38 783.4h-5.47v-1.94h5.47zm209.1 0h-184.43v-1.94h184.4zm21.43 0h-1.77v-1.94h1.77z" stroke="#3a414a" stroke-width=".05" fill="#3a414a"/><path d="M-1240.85 783.4h-1.03v-1.94h1.03z" fill="#3a414a"/><path stroke="#3a414a" stroke-width=".05" fill="#3a414a"/><path d="M-1477.83 783.4h-1.02v-1.94h1.02z" fill="#3a414a"/><path stroke="#3a414a" stroke-width=".05" fill="#3a414a"/><g><use xlink:href="#v" transform="matrix(1,0,0,1,-1263.2849292736764,771.6764061663988) translate(0 17.22222222222222)"/></g><g><use xlink:href="#u" transform="matrix(1,0,0,1,-1472.37853272244,771.6764061663988) translate(0 17.22222222222222)"/></g><defs><path d="M657 26c-323 0-524-166-541-416h195c15 169 171 246 346 246 202 0 356-106 356-265 5-203-294-238-475-293-239-73-380-191-380-389 0-252 224-419 512-419 294 0 499 171 508 396H992c-17-145-151-228-328-228-193 0-321 102-321 242 0 156 175 211 284 241l149 41c160 44 422 134 422 412 0 244-197 432-541 432" id="I"/><path d="M613 24c-304 0-509-231-509-576 0-350 205-580 509-580 216 0 392 114 453 309l-173 49c-33-115-133-197-280-197-223 0-326 196-326 419 0 220 103 415 326 415 150 0 252-85 285-206l172 49C1010-95 832 24 613 24" id="J"/><path d="M338-670V0H158v-1490h180v566c73-149 190-208 336-208 226 0 379 139 379 422V0H872v-695c0-172-96-275-252-275-161 0-282 109-282 300" id="K"/><path d="M613 24c-304 0-509-231-509-576 0-350 205-580 509-580 305 0 511 230 511 580 0 345-206 576-511 576zm0-161c226 0 329-195 329-415 0-222-103-419-329-419-223 0-326 196-326 419 0 220 103 415 326 415" id="L"/><path d="M338-1490V0H158v-1490h180" id="M"/><g id="a"><use transform="matrix(0.010850694444444444,0,0,0.010850694444444444,0,0)" xlink:href="#I"/><use transform="matrix(0.010850694444444444,0,0,0.010850694444444444,14.2578125,0)" xlink:href="#J"/><use transform="matrix(0.010850694444444444,0,0,0.010850694444444444,26.953125,0)" xlink:href="#K"/><use transform="matrix(0.010850694444444444,0,0,0.010850694444444444,40.09331597222222,0)" xlink:href="#L"/><use transform="matrix(0.010850694444444444,0,0,0.010850694444444444,53.41796875,0)" xlink:href="#L"/><use transform="matrix(0.010850694444444444,0,0,0.010850694444444444,66.74262152777777,0)" xlink:href="#M"/></g><path d="M140 405l46-156c120 36 205 19 263-150l32-93L54-1118h197c107 313 237 620 324 950 87-331 219-637 326-950h196L606 167c-68 178-176 259-334 259-64 0-113-12-132-21" id="N"/><path d="M538 24C308 24 148-78 108-271l171-41c32 123 123 178 257 178 156 0 256-77 256-169 0-77-54-128-164-154l-186-44c-203-48-300-148-300-305 0-192 176-326 414-326 230 0 351 112 402 269l-163 42c-31-80-94-158-238-158-133 0-233 69-233 162 0 83 57 129 188 160l169 40c203 48 298 149 298 302 0 196-179 339-441 339" id="O"/><path d="M598-1118v154H368v674c0 100 37 144 132 144 23 0 62-6 92-12L629-6c-37 13-88 20-134 20-193 0-307-107-307-290v-688H20v-154h168v-266h180v266h230" id="P"/><path d="M628 24c-324 0-524-230-524-574 0-343 198-582 503-582 237 0 487 146 487 559v75H286c9 234 145 362 343 362 132 0 231-58 273-172l174 48C1024-91 857 24 628 24zM287-650h624c-17-190-120-322-304-322-192 0-309 151-320 322" id="Q"/><path d="M158 0v-1118h175l1 205c55-151 181-225 313-225 147 0 245 90 285 228 53-141 190-228 352-228 194 0 352 125 352 384V0h-181v-749c0-161-105-225-225-225-151 0-243 103-243 244V0H807v-767c0-124-93-207-219-207-131 0-250 92-250 270V0H158" id="R"/><g id="b"><use transform="matrix(0.010850694444444444,0,0,0.010850694444444444,0,0)" xlink:href="#I"/><use transform="matrix(0.010850694444444444,0,0,0.010850694444444444,14.2578125,0)" xlink:href="#N"/><use transform="matrix(0.010850694444444444,0,0,0.010850694444444444,26.74696180555556,0)" xlink:href="#O"/><use transform="matrix(0.010850694444444444,0,0,0.010850694444444444,38.4765625,0)" xlink:href="#P"/><use transform="matrix(0.010850694444444444,0,0,0.010850694444444444,45.5295138888889,0)" xlink:href="#Q"/><use transform="matrix(0.010850694444444444,0,0,0.010850694444444444,58.48524305555555,0)" xlink:href="#R"/></g><path d="M645 0H180v-1490h484c435 0 692 280 692 742 0 466-257 748-711 748zM370-168h263c363 0 539-218 539-580 0-358-176-574-521-574H370v1154" id="S"/><path d="M471 26C259 26 90-98 90-318c0-256 228-303 435-329 202-27 287-16 287-108 0-139-79-219-234-219-161 0-248 86-283 164l-173-57c86-203 278-265 451-265 150 0 419 46 419 395V0H815v-152h-12C765-73 660 26 471 26zm31-159c199 0 310-134 310-271v-155c-30 35-226 55-295 64-131 17-246 59-246 186 0 116 97 176 231 176" id="T"/><path d="M677 24c-213 0-288-135-325-197h-20V0H158v-1490h180v551h14c37-59 106-193 324-193 279 0 474 222 474 576 0 356-194 580-473 580zm-27-161c209 0 317-186 317-421 0-232-105-413-317-413-206 0-314 166-314 413 0 249 111 421 314 421" id="U"/><g id="c"><use transform="matrix(0.010850694444444444,0,0,0.010850694444444444,0,0)" xlink:href="#S"/><use transform="matrix(0.010850694444444444,0,0,0.010850694444444444,16.03732638888889,0)" xlink:href="#T"/><use transform="matrix(0.010850694444444444,0,0,0.010850694444444444,28.515625,0)" xlink:href="#P"/><use transform="matrix(0.010850694444444444,0,0,0.010850694444444444,35.89409722222222,0)" xlink:href="#T"/><use transform="matrix(0.010850694444444444,0,0,0.010850694444444444,48.37239583333333,0)" xlink:href="#U"/><use transform="matrix(0.010850694444444444,0,0,0.010850694444444444,62.19618055555554,0)" xlink:href="#T"/><use transform="matrix(0.010850694444444444,0,0,0.010850694444444444,74.67447916666666,0)" xlink:href="#O"/><use transform="matrix(0.010850694444444444,0,0,0.010850694444444444,86.4040798611111,0)" xlink:href="#Q"/></g><path d="M158 0v-1118h174v172h12c41-113 157-188 290-188 26 0 70 2 91 3v181c-11-2-60-10-108-10-161 0-279 109-279 260V0H158" id="V"/><path d="M481 0L54-1118h197c107 314 236 620 325 951 87-331 217-637 324-951h197L670 0H481" id="W"/><path d="M158 0v-1118h180V0H158zm91-1301c-68 0-125-53-125-119s57-119 125-119c69 0 126 53 126 119s-57 119-126 119" id="X"/><g id="d"><use transform="matrix(0.010850694444444444,0,0,0.010850694444444444,0,0)" xlink:href="#I"/><use transform="matrix(0.010850694444444444,0,0,0.010850694444444444,14.2578125,0)" xlink:href="#Q"/><use transform="matrix(0.010850694444444444,0,0,0.010850694444444444,27.213541666666664,0)" xlink:href="#V"/><use transform="matrix(0.010850694444444444,0,0,0.010850694444444444,35.92664930555555,0)" xlink:href="#W"/><use transform="matrix(0.010850694444444444,0,0,0.010850694444444444,48.41579861111111,0)" xlink:href="#X"/><use transform="matrix(0.010850694444444444,0,0,0.010850694444444444,53.79774305555556,0)" xlink:href="#J"/><use transform="matrix(0.010850694444444444,0,0,0.010850694444444444,66.49305555555554,0)" xlink:href="#Q"/></g><path d="M180 0v-1490h224l606 953c40 63 108 177 176 312-27-437-7-821-13-1265h190V0h-226C860-448 622-778 356-1262c27 476 11 792 15 1262H180" id="Y"/><g id="e"><use transform="matrix(0.010850694444444444,0,0,0.010850694444444444,0,0)" xlink:href="#Y"/><use transform="matrix(0.010850694444444444,0,0,0.010850694444444444,16.74262152777778,0)" xlink:href="#L"/><use transform="matrix(0.010850694444444444,0,0,0.010850694444444444,30.06727430555556,0)" xlink:href="#P"/><use transform="matrix(0.010850694444444444,0,0,0.010850694444444444,37.12022569444444,0)" xlink:href="#Q"/><use transform="matrix(0.010850694444444444,0,0,0.010850694444444444,50.07595486111111,0)" xlink:href="#O"/></g><path d="M934 0v166H0V0h934" id="Z"/><path d="M537 14c-226 0-379-139-379-422v-710h180v695c0 172 97 275 253 275 160 0 281-109 281-300v-670h181V0H879v-209C806-46 684 14 537 14" id="aa"/><path d="M577 24c-279 0-473-224-473-580 0-354 195-576 474-576 218 0 287 134 324 193h14v-551h180V0H922v-173h-20C865-111 790 24 577 24zm27-161c203 0 314-172 314-421 0-247-108-413-314-413-212 0-317 181-317 413 0 235 108 421 317 421" id="ab"/><path d="M338-670V0H158v-1118h173l1 207c72-158 192-221 342-221 226 0 378 139 378 422V0H872v-695c0-172-96-275-252-275-161 0-282 109-282 300" id="ac"/><g id="f"><use transform="matrix(0.010850694444444444,0,0,0.010850694444444444,0,0)" xlink:href="#P"/><use transform="matrix(0.010850694444444444,0,0,0.010850694444444444,7.269965277777778,0)" xlink:href="#U"/><use transform="matrix(0.010850694444444444,0,0,0.010850694444444444,20.87673611111111,0)" xlink:href="#Z"/><use transform="matrix(0.010850694444444444,0,0,0.010850694444444444,31.01128472222222,0)" xlink:href="#O"/><use transform="matrix(0.010850694444444444,0,0,0.010850694444444444,42.740885416666664,0)" xlink:href="#P"/><use transform="matrix(0.010850694444444444,0,0,0.010850694444444444,50.01085069444444,0)" xlink:href="#aa"/><use transform="matrix(0.010850694444444444,0,0,0.010850694444444444,63.151041666666664,0)" xlink:href="#ab"/><use transform="matrix(0.010850694444444444,0,0,0.010850694444444444,76.7578125,0)" xlink:href="#Q"/><use transform="matrix(0.010850694444444444,0,0,0.010850694444444444,89.71354166666666,0)" xlink:href="#ac"/><use transform="matrix(0.010850694444444444,0,0,0.010850694444444444,102.84288194444444,0)" xlink:href="#P"/></g><g id="g"><use transform="matrix(0.010850694444444444,0,0,0.010850694444444444,0,0)" xlink:href="#X"/><use transform="matrix(0.010850694444444444,0,0,0.010850694444444444,5.381944444444445,0)" xlink:href="#ab"/></g><g id="h"><use transform="matrix(0.010850694444444444,0,0,0.010850694444444444,0,0)" xlink:href="#aa"/><use transform="matrix(0.010850694444444444,0,0,0.010850694444444444,13.140190972222221,0)" xlink:href="#aa"/><use transform="matrix(0.010850694444444444,0,0,0.010850694444444444,26.280381944444443,0)" xlink:href="#X"/><use transform="matrix(0.010850694444444444,0,0,0.010850694444444444,31.66232638888889,0)" xlink:href="#ab"/></g><g id="i"><use transform="matrix(0.010850694444444444,0,0,0.010850694444444444,0,0)" xlink:href="#ac"/><use transform="matrix(0.010850694444444444,0,0,0.010850694444444444,13.129340277777777,0)" xlink:href="#T"/><use transform="matrix(0.010850694444444444,0,0,0.010850694444444444,25.60763888888889,0)" xlink:href="#R"/><use transform="matrix(0.010850694444444444,0,0,0.010850694444444444,45.07378472222221,0)" xlink:href="#Q"/></g><g id="j"><use transform="matrix(0.010850694444444444,0,0,0.010850694444444444,0,0)" xlink:href="#W"/><use transform="matrix(0.010850694444444444,0,0,0.010850694444444444,12.38064236111111,0)" xlink:href="#T"/><use transform="matrix(0.010850694444444444,0,0,0.010850694444444444,24.85894097222222,0)" xlink:href="#V"/><use transform="matrix(0.010850694444444444,0,0,0.010850694444444444,32.85590277777778,0)" xlink:href="#J"/><use transform="matrix(0.010850694444444444,0,0,0.010850694444444444,45.55121527777778,0)" xlink:href="#K"/><use transform="matrix(0.010850694444444444,0,0,0.010850694444444444,58.69140625,0)" xlink:href="#T"/><use transform="matrix(0.010850694444444444,0,0,0.010850694444444444,71.16970486111111,0)" xlink:href="#V"/></g><path d="M158 418v-1536h174v179h20c37-59 106-193 324-193 279 0 474 222 474 576 0 356-194 580-473 580-213 0-288-135-325-197h-14v591H158zm492-555c209 0 317-186 317-421 0-232-105-413-317-413-206 0-314 166-314 413 0 249 111 421 314 421" id="ad"/><path d="M678-1118v154H420V0H240v-964H20v-154h220v-149c0-194 155-293 318-293 85 0 141 18 168 30l-50 154c-19-6-47-17-97-17-111 0-159 58-159 166v109h258" id="ae"/><g id="k"><use transform="matrix(0.010850694444444444,0,0,0.010850694444444444,0,0)" xlink:href="#J"/><use transform="matrix(0.010850694444444444,0,0,0.010850694444444444,12.6953125,0)" xlink:href="#ad"/><use transform="matrix(0.010850694444444444,0,0,0.010850694444444444,26.302083333333332,0)" xlink:href="#ae"/></g><g id="l"><use transform="matrix(0.010850694444444444,0,0,0.010850694444444444,0,0)" xlink:href="#T"/><use transform="matrix(0.010850694444444444,0,0,0.010850694444444444,12.47829861111111,0)" xlink:href="#ab"/><use transform="matrix(0.010850694444444444,0,0,0.010850694444444444,26.085069444444443,0)" xlink:href="#ab"/><use transform="matrix(0.010850694444444444,0,0,0.010850694444444444,39.69184027777777,0)" xlink:href="#V"/><use transform="matrix(0.010850694444444444,0,0,0.010850694444444444,47.68880208333332,0)" xlink:href="#Q"/><use transform="matrix(0.010850694444444444,0,0,0.010850694444444444,60.644531249999986,0)" xlink:href="#O"/><use transform="matrix(0.010850694444444444,0,0,0.010850694444444444,72.37413194444443,0)" xlink:href="#O"/></g><path d="M65 0l393-574-370-544h210c88 136 192 297 267 435 67-142 176-302 264-435h206L661-564 1053 0H844c-94-144-206-310-287-458C484-308 366-142 273 0H65" id="af"/><g id="m"><use transform="matrix(0.010850694444444444,0,0,0.010850694444444444,0,0)" xlink:href="#P"/><use transform="matrix(0.010850694444444444,0,0,0.010850694444444444,7.052951388888888,0)" xlink:href="#Q"/><use transform="matrix(0.010850694444444444,0,0,0.010850694444444444,19.50954861111111,0)" xlink:href="#af"/><use transform="matrix(0.010850694444444444,0,0,0.010850694444444444,32.07465277777778,0)" xlink:href="#P"/></g><g id="n"><use transform="matrix(0.010850694444444444,0,0,0.010850694444444444,0,0)" xlink:href="#ab"/><use transform="matrix(0.010850694444444444,0,0,0.010850694444444444,13.606770833333332,0)" xlink:href="#T"/><use transform="matrix(0.010850694444444444,0,0,0.010850694444444444,26.085069444444443,0)" xlink:href="#P"/><use transform="matrix(0.010850694444444444,0,0,0.010850694444444444,33.13802083333333,0)" xlink:href="#Q"/><use transform="matrix(0.010850694444444444,0,0,0.010850694444444444,46.093749999999986,0)" xlink:href="#Z"/><use transform="matrix(0.010850694444444444,0,0,0.010850694444444444,56.97699652777778,0)" xlink:href="#U"/><use transform="matrix(0.010850694444444444,0,0,0.010850694444444444,70.5837673611111,0)" xlink:href="#X"/><use transform="matrix(0.010850694444444444,0,0,0.010850694444444444,75.96571180555554,0)" xlink:href="#V"/><use transform="matrix(0.010850694444444444,0,0,0.010850694444444444,84.67881944444444,0)" xlink:href="#P"/><use transform="matrix(0.010850694444444444,0,0,0.010850694444444444,91.94878472222221,0)" xlink:href="#K"/></g><g id="o"><use transform="matrix(0.010850694444444444,0,0,0.010850694444444444,0,0)" xlink:href="#ab"/><use transform="matrix(0.010850694444444444,0,0,0.010850694444444444,13.606770833333332,0)" xlink:href="#T"/><use transform="matrix(0.010850694444444444,0,0,0.010850694444444444,26.085069444444443,0)" xlink:href="#P"/><use transform="matrix(0.010850694444444444,0,0,0.010850694444444444,33.13802083333333,0)" xlink:href="#Q"/></g><g id="p"><use transform="matrix(0.010850694444444444,0,0,0.010850694444444444,0,0)" xlink:href="#P"/><use transform="matrix(0.010850694444444444,0,0,0.010850694444444444,7.269965277777778,0)" xlink:href="#U"/><use transform="matrix(0.010850694444444444,0,0,0.010850694444444444,20.87673611111111,0)" xlink:href="#Z"/><use transform="matrix(0.010850694444444444,0,0,0.010850694444444444,31.01128472222222,0)" xlink:href="#J"/><use transform="matrix(0.010850694444444444,0,0,0.010850694444444444,43.70659722222222,0)" xlink:href="#M"/><use transform="matrix(0.010850694444444444,0,0,0.010850694444444444,49.088541666666664,0)" xlink:href="#T"/><use transform="matrix(0.010850694444444444,0,0,0.010850694444444444,61.56684027777778,0)" xlink:href="#O"/><use transform="matrix(0.010850694444444444,0,0,0.010850694444444444,73.29644097222221,0)" xlink:href="#O"/></g><g id="q"><use transform="matrix(0.010850694444444444,0,0,0.010850694444444444,0,0)" xlink:href="#M"/><use transform="matrix(0.010850694444444444,0,0,0.010850694444444444,5.381944444444445,0)" xlink:href="#L"/><use transform="matrix(0.010850694444444444,0,0,0.010850694444444444,18.70659722222222,0)" xlink:href="#J"/><use transform="matrix(0.010850694444444444,0,0,0.010850694444444444,31.61892361111111,0)" xlink:href="#T"/><use transform="matrix(0.010850694444444444,0,0,0.010850694444444444,44.09722222222222,0)" xlink:href="#P"/><use transform="matrix(0.010850694444444444,0,0,0.010850694444444444,51.3671875,0)" xlink:href="#X"/><use transform="matrix(0.010850694444444444,0,0,0.010850694444444444,56.74913194444444,0)" xlink:href="#L"/><use transform="matrix(0.010850694444444444,0,0,0.010850694444444444,70.07378472222221,0)" xlink:href="#ac"/></g><g id="r"><use transform="matrix(0.010850694444444444,0,0,0.010850694444444444,0,0)" xlink:href="#P"/><use transform="matrix(0.010850694444444444,0,0,0.010850694444444444,7.269965277777778,0)" xlink:href="#U"/><use transform="matrix(0.010850694444444444,0,0,0.010850694444444444,20.87673611111111,0)" xlink:href="#Z"/><use transform="matrix(0.010850694444444444,0,0,0.010850694444444444,31.01128472222222,0)" xlink:href="#O"/><use transform="matrix(0.010850694444444444,0,0,0.010850694444444444,42.740885416666664,0)" xlink:href="#P"/><use transform="matrix(0.010850694444444444,0,0,0.010850694444444444,50.01085069444444,0)" xlink:href="#aa"/><use transform="matrix(0.010850694444444444,0,0,0.010850694444444444,63.151041666666664,0)" xlink:href="#ab"/><use transform="matrix(0.010850694444444444,0,0,0.010850694444444444,76.7578125,0)" xlink:href="#Q"/><use transform="matrix(0.010850694444444444,0,0,0.010850694444444444,89.71354166666666,0)" xlink:href="#ac"/><use transform="matrix(0.010850694444444444,0,0,0.010850694444444444,102.84288194444444,0)" xlink:href="#P"/><use transform="matrix(0.010850694444444444,0,0,0.010850694444444444,110.11284722222221,0)" xlink:href="#Z"/><use transform="matrix(0.010850694444444444,0,0,0.010850694444444444,120.24739583333333,0)" xlink:href="#J"/><use transform="matrix(0.010850694444444444,0,0,0.010850694444444444,132.94270833333331,0)" xlink:href="#M"/><use transform="matrix(0.010850694444444444,0,0,0.010850694444444444,138.32465277777777,0)" xlink:href="#T"/><use transform="matrix(0.010850694444444444,0,0,0.010850694444444444,150.80295138888889,0)" xlink:href="#O"/><use transform="matrix(0.010850694444444444,0,0,0.010850694444444444,162.53255208333334,0)" xlink:href="#O"/></g><g id="s"><use transform="matrix(0.010850694444444444,0,0,0.010850694444444444,0,0)" xlink:href="#O"/><use transform="matrix(0.010850694444444444,0,0,0.010850694444444444,11.729600694444445,0)" xlink:href="#P"/><use transform="matrix(0.010850694444444444,0,0,0.010850694444444444,18.99956597222222,0)" xlink:href="#aa"/><use transform="matrix(0.010850694444444444,0,0,0.010850694444444444,32.13975694444444,0)" xlink:href="#ab"/><use transform="matrix(0.010850694444444444,0,0,0.010850694444444444,45.74652777777778,0)" xlink:href="#Q"/><use transform="matrix(0.010850694444444444,0,0,0.010850694444444444,58.702256944444436,0)" xlink:href="#ac"/><use transform="matrix(0.010850694444444444,0,0,0.010850694444444444,71.83159722222221,0)" xlink:href="#P"/><use transform="matrix(0.010850694444444444,0,0,0.010850694444444444,79.10156249999999,0)" xlink:href="#Z"/><use transform="matrix(0.010850694444444444,0,0,0.010850694444444444,89.98480902777777,0)" xlink:href="#X"/><use transform="matrix(0.010850694444444444,0,0,0.010850694444444444,95.36675347222221,0)" xlink:href="#ab"/></g><g id="t"><use transform="matrix(0.010850694444444444,0,0,0.010850694444444444,0,0)" xlink:href="#J"/><use transform="matrix(0.010850694444444444,0,0,0.010850694444444444,12.6953125,0)" xlink:href="#M"/><use transform="matrix(0.010850694444444444,0,0,0.010850694444444444,18.077256944444443,0)" xlink:href="#T"/><use transform="matrix(0.010850694444444444,0,0,0.010850694444444444,30.555555555555554,0)" xlink:href="#O"/><use transform="matrix(0.010850694444444444,0,0,0.010850694444444444,42.28515625,0)" xlink:href="#O"/><use transform="matrix(0.010850694444444444,0,0,0.010850694444444444,54.01475694444444,0)" xlink:href="#Z"/><use transform="matrix(0.010850694444444444,0,0,0.010850694444444444,64.89800347222221,0)" xlink:href="#X"/><use transform="matrix(0.010850694444444444,0,0,0.010850694444444444,70.27994791666666,0)" xlink:href="#ab"/></g><path fill="#333" d="M749-1490V0H444v-1221h-10L93-980v-279l329-231h327" id="ag"/><path fill="#333" d="M119 395l88-620h300L323 395H119" id="ah"/><path fill="#333" d="M428-647V0H128v-1118h283l4 231c63-156 176-245 348-245 232 0 384 159 384 421V0H847v-659c0-139-76-222-202-222-128 0-217 86-217 234" id="ai"/><g id="u"><use transform="matrix(0.008680555555555556,0,0,0.008680555555555556,0,0)" xlink:href="#ag"/><use transform="matrix(0.008680555555555556,0,0,0.008680555555555556,7.664930555555556,0)" xlink:href="#ah"/><use transform="matrix(0.008680555555555556,0,0,0.008680555555555556,13.602430555555555,0)" xlink:href="#ai"/></g><g id="v"><use transform="matrix(0.008680555555555556,0,0,0.008680555555555556,0,0)" xlink:href="#ag"/><use transform="matrix(0.008680555555555556,0,0,0.008680555555555556,7.664930555555556,0)" xlink:href="#ah"/><use transform="matrix(0.008680555555555556,0,0,0.008680555555555556,11.996527777777779,0)" xlink:href="#ag"/></g><path d="M157-1118h181V80c1 225-123 350-364 338V252c126 9 184-48 183-172v-1198zm91-183c-68 0-125-53-125-119s57-119 125-119c69 0 126 53 126 119s-57 119-126 119" id="aj"/><g id="w"><use transform="matrix(0.010850694444444444,0,0,0.010850694444444444,0,0)" xlink:href="#P"/><use transform="matrix(0.010850694444444444,0,0,0.010850694444444444,7.269965277777778,0)" xlink:href="#U"/><use transform="matrix(0.010850694444444444,0,0,0.010850694444444444,20.87673611111111,0)" xlink:href="#Z"/><use transform="matrix(0.010850694444444444,0,0,0.010850694444444444,31.01128472222222,0)" xlink:href="#O"/><use transform="matrix(0.010850694444444444,0,0,0.010850694444444444,42.740885416666664,0)" xlink:href="#aa"/><use transform="matrix(0.010850694444444444,0,0,0.010850694444444444,55.881076388888886,0)" xlink:href="#U"/><use transform="matrix(0.010850694444444444,0,0,0.010850694444444444,69.48784722222221,0)" xlink:href="#aj"/><use transform="matrix(0.010850694444444444,0,0,0.010850694444444444,74.86979166666666,0)" xlink:href="#Q"/><use transform="matrix(0.010850694444444444,0,0,0.010850694444444444,87.82552083333333,0)" xlink:href="#J"/><use transform="matrix(0.010850694444444444,0,0,0.010850694444444444,100.52083333333333,0)" xlink:href="#P"/></g><path d="M409 0L70-1118h191c89 329 165 560 243 925 75-353 154-601 240-925h192c85 325 161 564 235 922 77-354 157-598 244-922h191L1267 0h-179c-86-307-176-590-250-913C763-588 675-308 588 0H409" id="ak"/><g id="x"><use transform="matrix(0.010850694444444444,0,0,0.010850694444444444,0,0)" xlink:href="#ak"/><use transform="matrix(0.010850694444444444,0,0,0.010850694444444444,17.784288194444446,0)" xlink:href="#L"/><use transform="matrix(0.010850694444444444,0,0,0.010850694444444444,31.10894097222222,0)" xlink:href="#V"/><use transform="matrix(0.010850694444444444,0,0,0.010850694444444444,39.82204861111111,0)" xlink:href="#M"/><use transform="matrix(0.010850694444444444,0,0,0.010850694444444444,45.20399305555556,0)" xlink:href="#L"/><use transform="matrix(0.010850694444444444,0,0,0.010850694444444444,58.74565972222221,0)" xlink:href="#T"/><use transform="matrix(0.010850694444444444,0,0,0.010850694444444444,71.22395833333333,0)" xlink:href="#ab"/></g><path d="M611 442c-248 0-391-105-460-228l146-94c47 65 117 165 314 165 178 0 307-82 307-266v-224h-17C863-141 792-18 576-18c-268 0-472-195-472-546 0-346 197-568 476-568 216 0 288 133 326 193h17v-179h175V29c0 289-215 413-487 413zm-5-620c203 0 314-146 314-390 0-237-108-403-314-403-213 0-319 180-319 403 0 230 109 390 319 390" id="al"/><g id="y"><use transform="matrix(0.010850694444444444,0,0,0.010850694444444444,0,0)" xlink:href="#X"/><use transform="matrix(0.010850694444444444,0,0,0.010850694444444444,5.381944444444445,0)" xlink:href="#ac"/><use transform="matrix(0.010850694444444444,0,0,0.010850694444444444,18.51128472222222,0)" xlink:href="#P"/><use transform="matrix(0.010850694444444444,0,0,0.010850694444444444,25.56423611111111,0)" xlink:href="#Q"/><use transform="matrix(0.010850694444444444,0,0,0.010850694444444444,38.51996527777778,0)" xlink:href="#al"/><use transform="matrix(0.010850694444444444,0,0,0.010850694444444444,52.1484375,0)" xlink:href="#Q"/><use transform="matrix(0.010850694444444444,0,0,0.010850694444444444,65.10416666666667,0)" xlink:href="#V"/></g><g id="z"><use transform="matrix(0.010850694444444444,0,0,0.010850694444444444,0,0)" xlink:href="#P"/><use transform="matrix(0.010850694444444444,0,0,0.010850694444444444,7.269965277777778,0)" xlink:href="#U"/><use transform="matrix(0.010850694444444444,0,0,0.010850694444444444,20.87673611111111,0)" xlink:href="#Z"/><use transform="matrix(0.010850694444444444,0,0,0.010850694444444444,31.01128472222222,0)" xlink:href="#Q"/><use transform="matrix(0.010850694444444444,0,0,0.010850694444444444,43.46788194444444,0)" xlink:href="#af"/><use transform="matrix(0.010850694444444444,0,0,0.010850694444444444,55.59895833333333,0)" xlink:href="#T"/><use transform="matrix(0.010850694444444444,0,0,0.010850694444444444,68.07725694444444,0)" xlink:href="#R"/></g><g id="A"><use transform="matrix(0.010850694444444444,0,0,0.010850694444444444,0,0)" xlink:href="#O"/><use transform="matrix(0.010850694444444444,0,0,0.010850694444444444,11.729600694444445,0)" xlink:href="#J"/><use transform="matrix(0.010850694444444444,0,0,0.010850694444444444,24.424913194444443,0)" xlink:href="#L"/><use transform="matrix(0.010850694444444444,0,0,0.010850694444444444,37.74956597222222,0)" xlink:href="#V"/><use transform="matrix(0.010850694444444444,0,0,0.010850694444444444,45.74652777777778,0)" xlink:href="#Q"/></g><g id="B"><use transform="matrix(0.010850694444444444,0,0,0.010850694444444444,0,0)" xlink:href="#ac"/><use transform="matrix(0.010850694444444444,0,0,0.010850694444444444,13.129340277777777,0)" xlink:href="#aa"/><use transform="matrix(0.010850694444444444,0,0,0.010850694444444444,26.26953125,0)" xlink:href="#R"/><use transform="matrix(0.010850694444444444,0,0,0.010850694444444444,45.73567708333333,0)" xlink:href="#Q"/><use transform="matrix(0.010850694444444444,0,0,0.010850694444444444,58.691406249999986,0)" xlink:href="#V"/><use transform="matrix(0.010850694444444444,0,0,0.010850694444444444,67.40451388888889,0)" xlink:href="#X"/><use transform="matrix(0.010850694444444444,0,0,0.010850694444444444,72.78645833333333,0)" xlink:href="#J"/></g><g id="C"><use transform="matrix(0.010850694444444444,0,0,0.010850694444444444,0,0)" xlink:href="#O"/><use transform="matrix(0.010850694444444444,0,0,0.010850694444444444,11.729600694444445,0)" xlink:href="#aa"/><use transform="matrix(0.010850694444444444,0,0,0.010850694444444444,24.869791666666664,0)" xlink:href="#U"/><use transform="matrix(0.010850694444444444,0,0,0.010850694444444444,38.4765625,0)" xlink:href="#aj"/><use transform="matrix(0.010850694444444444,0,0,0.010850694444444444,43.85850694444444,0)" xlink:href="#Q"/><use transform="matrix(0.010850694444444444,0,0,0.010850694444444444,56.81423611111111,0)" xlink:href="#J"/><use transform="matrix(0.010850694444444444,0,0,0.010850694444444444,69.50954861111111,0)" xlink:href="#P"/><use transform="matrix(0.010850694444444444,0,0,0.010850694444444444,76.77951388888889,0)" xlink:href="#Z"/><use transform="matrix(0.010850694444444444,0,0,0.010850694444444444,87.66276041666667,0)" xlink:href="#X"/><use transform="matrix(0.010850694444444444,0,0,0.010850694444444444,93.04470486111111,0)" xlink:href="#ab"/></g><path fill="#333" d="M690 20C314 20 94-261 94-744c0-482 221-766 596-766 376 0 597 284 597 766 0 483-219 764-597 764zm0-253c184 0 286-184 286-511 0-328-102-514-286-514-183 0-285 187-285 514s101 511 285 511" id="am"/><g id="D"><use transform="matrix(0.008680555555555556,0,0,0.008680555555555556,0,0)" xlink:href="#am"/><use transform="matrix(0.008680555555555556,0,0,0.008680555555555556,11.46701388888889,0)" xlink:href="#ah"/><use transform="matrix(0.008680555555555556,0,0,0.008680555555555556,17.40451388888889,0)" xlink:href="#ai"/></g><g id="E"><use transform="matrix(0.010850694444444444,0,0,0.010850694444444444,0,0)" xlink:href="#P"/><use transform="matrix(0.010850694444444444,0,0,0.010850694444444444,7.269965277777778,0)" xlink:href="#U"/><use transform="matrix(0.010850694444444444,0,0,0.010850694444444444,20.87673611111111,0)" xlink:href="#Z"/><use transform="matrix(0.010850694444444444,0,0,0.010850694444444444,31.01128472222222,0)" xlink:href="#T"/><use transform="matrix(0.010850694444444444,0,0,0.010850694444444444,43.48958333333333,0)" xlink:href="#J"/><use transform="matrix(0.010850694444444444,0,0,0.010850694444444444,56.40190972222221,0)" xlink:href="#T"/><use transform="matrix(0.010850694444444444,0,0,0.010850694444444444,68.88020833333333,0)" xlink:href="#ab"/><use transform="matrix(0.010850694444444444,0,0,0.010850694444444444,82.48697916666666,0)" xlink:href="#Q"/><use transform="matrix(0.010850694444444444,0,0,0.010850694444444444,95.44270833333333,0)" xlink:href="#R"/><use transform="matrix(0.010850694444444444,0,0,0.010850694444444444,114.90885416666666,0)" xlink:href="#X"/><use transform="matrix(0.010850694444444444,0,0,0.010850694444444444,120.2907986111111,0)" xlink:href="#J"/><use transform="matrix(0.010850694444444444,0,0,0.010850694444444444,132.9861111111111,0)" xlink:href="#Z"/><use transform="matrix(0.010850694444444444,0,0,0.010850694444444444,143.86935763888886,0)" xlink:href="#V"/><use transform="matrix(0.010850694444444444,0,0,0.010850694444444444,151.8663194444444,0)" xlink:href="#Q"/><use transform="matrix(0.010850694444444444,0,0,0.010850694444444444,164.82204861111106,0)" xlink:href="#J"/><use transform="matrix(0.010850694444444444,0,0,0.010850694444444444,177.51736111111106,0)" xlink:href="#L"/><use transform="matrix(0.010850694444444444,0,0,0.010850694444444444,190.84201388888883,0)" xlink:href="#V"/><use transform="matrix(0.010850694444444444,0,0,0.010850694444444444,198.83897569444437,0)" xlink:href="#ab"/></g><g id="F"><use transform="matrix(0.010850694444444444,0,0,0.010850694444444444,0,0)" xlink:href="#ad"/><use transform="matrix(0.010850694444444444,0,0,0.010850694444444444,13.823784722222221,0)" xlink:href="#T"/><use transform="matrix(0.010850694444444444,0,0,0.010850694444444444,26.302083333333332,0)" xlink:href="#O"/><use transform="matrix(0.010850694444444444,0,0,0.010850694444444444,38.03168402777778,0)" xlink:href="#O"/><use transform="matrix(0.010850694444444444,0,0,0.010850694444444444,49.76128472222222,0)" xlink:href="#Q"/><use transform="matrix(0.010850694444444444,0,0,0.010850694444444444,62.717013888888886,0)" xlink:href="#ab"/></g><g id="G"><use transform="matrix(0.010850694444444444,0,0,0.010850694444444444,0,0)" xlink:href="#U"/><use transform="matrix(0.010850694444444444,0,0,0.010850694444444444,13.606770833333332,0)" xlink:href="#L"/><use transform="matrix(0.010850694444444444,0,0,0.010850694444444444,26.931423611111104,0)" xlink:href="#L"/><use transform="matrix(0.010850694444444444,0,0,0.010850694444444444,40.256076388888886,0)" xlink:href="#M"/><use transform="matrix(0.010850694444444444,0,0,0.010850694444444444,45.63802083333333,0)" xlink:href="#Q"/><use transform="matrix(0.010850694444444444,0,0,0.010850694444444444,58.81076388888888,0)" xlink:href="#T"/><use transform="matrix(0.010850694444444444,0,0,0.010850694444444444,71.28906249999999,0)" xlink:href="#ac"/></g><g id="H"><use transform="matrix(0.010850694444444444,0,0,0.010850694444444444,0,0)" xlink:href="#ae"/><use transform="matrix(0.010850694444444444,0,0,0.010850694444444444,8.22482638888889,0)" xlink:href="#X"/><use transform="matrix(0.010850694444444444,0,0,0.010850694444444444,13.606770833333332,0)" xlink:href="#ac"/><use transform="matrix(0.010850694444444444,0,0,0.010850694444444444,26.73611111111111,0)" xlink:href="#T"/><use transform="matrix(0.010850694444444444,0,0,0.010850694444444444,39.21440972222222,0)" xlink:href="#M"/><use transform="matrix(0.010850694444444444,0,0,0.010850694444444444,44.596354166666664,0)" xlink:href="#Z"/><use transform="matrix(0.010850694444444444,0,0,0.010850694444444444,54.73090277777778,0)" xlink:href="#al"/><use transform="matrix(0.010850694444444444,0,0,0.010850694444444444,68.359375,0)" xlink:href="#V"/><use transform="matrix(0.010850694444444444,0,0,0.010850694444444444,76.72526041666667,0)" xlink:href="#T"/><use transform="matrix(0.010850694444444444,0,0,0.010850694444444444,89.2035590277778,0)" xlink:href="#ab"/><use transform="matrix(0.010850694444444444,0,0,0.010850694444444444,102.81032986111111,0)" xlink:href="#Q"/></g></defs></g></svg>