<svg xmlns="http://www.w3.org/2000/svg" xmlns:xlink="http://www.w3.org/1999/xlink" xmlns:lucid="lucid" width="2782" height="1121"><g transform="translate(1504.5675429104729 754.3958049690999)" lucid:page-tab-id="rYIjAO59-Zqk"><path d="M-2000-1000h3500V500h-3500z" fill="#fff"/><path d="M-1503.57-747.4a6 6 0 0 1 6-6h168a6 6 0 0 1 6 6v8a14.48 14.48 0 0 1-4.24 10.25l-1.53 1.5a14.48 14.48 0 0 1-10.24 4.25h-158a6 6 0 0 1-6-6z" fill="#cfe4ff"/><path d="M-1323.57-753.4v20l-10 10h-170" stroke="#000" stroke-width="2" fill="none"/><path d="M-1503.57-747.4a6 6 0 0 1 6-6h2768a6 6 0 0 1 6 6v1107a6 6 0 0 1-6 6h-2768a6 6 0 0 1-6-6z" stroke="#000" stroke-width="2" fill="none"/><use xlink:href="#a" transform="matrix(1,0,0,1,-1495.5675429104729,-753.3958049690999) translate(0 23.08376736111111)"/><path d="M-1423.57-661.4a12 12 0 0 1 12-12h376a12 12 0 0 1 12 12v53a12 12 0 0 1-12 12h-376a12 12 0 0 1-12-12z" fill="#fff3d9"/><path d="M-1423.57-633.4h400v25a12 12 0 0 1-12 12h-376a12 12 0 0 1-12-12z" fill="#fff3d9"/><path d="M-1422.57-633.4h398-398zM-1423.57-661.4a12 12 0 0 1 12-12h376a12 12 0 0 1 12 12v53a12 12 0 0 1-12 12h-376a12 12 0 0 1-12-12z" stroke="#fcce14" stroke-width="2" fill="none"/><use xlink:href="#b" transform="matrix(1,0,0,1,-1413.5675429104729,-673.3958049690999) translate(146.52126736111111 28.08376736111111)"/><use xlink:href="#c" transform="matrix(1,0,0,1,-1418.5675429104729,-630.8958049690999) translate(121.513671875 24.08376736111111)"/><path d="M-1423.57-541.4a12 12 0 0 1 12-12h376a12 12 0 0 1 12 12v53a12 12 0 0 1-12 12h-376a12 12 0 0 1-12-12z" fill="#fff3d9"/><path d="M-1423.57-513.4h400v25a12 12 0 0 1-12 12h-376a12 12 0 0 1-12-12z" fill="#fff3d9"/><path d="M-1422.57-513.4h398-398zM-1423.57-541.4a12 12 0 0 1 12-12h376a12 12 0 0 1 12 12v53a12 12 0 0 1-12 12h-376a12 12 0 0 1-12-12z" stroke="#fcce14" stroke-width="2" fill="none"/><use xlink:href="#b" transform="matrix(1,0,0,1,-1413.5675429104729,-553.3958049690999) translate(146.52126736111111 28.08376736111111)"/><use xlink:href="#d" transform="matrix(1,0,0,1,-1418.5675429104729,-510.8958049690999) translate(148.076171875 24.08376736111111)"/><path d="M-1423.57-301.4a12 12 0 0 1 12-12h376a12 12 0 0 1 12 12v53a12 12 0 0 1-12 12h-376a12 12 0 0 1-12-12z" fill="#fff3d9"/><path d="M-1423.57-273.4h400v25a12 12 0 0 1-12 12h-376a12 12 0 0 1-12-12z" fill="#fff3d9"/><path d="M-1422.57-273.4h398-398zM-1423.57-301.4a12 12 0 0 1 12-12h376a12 12 0 0 1 12 12v53a12 12 0 0 1-12 12h-376a12 12 0 0 1-12-12z" stroke="#fcce14" stroke-width="2" fill="none"/><use xlink:href="#b" transform="matrix(1,0,0,1,-1413.5675429104729,-313.3958049690999) translate(146.52126736111111 28.08376736111111)"/><use xlink:href="#e" transform="matrix(1,0,0,1,-1418.5675429104729,-270.8958049690999) translate(87.10069444444446 24.08376736111111)"/><path d="M-1423.57-181.4a12 12 0 0 1 12-12h376a12 12 0 0 1 12 12v53a12 12 0 0 1-12 12h-376a12 12 0 0 1-12-12z" fill="#fff3d9"/><path d="M-1423.57-153.4h400v25a12 12 0 0 1-12 12h-376a12 12 0 0 1-12-12z" fill="#fff3d9"/><path d="M-1422.57-153.4h398-398zM-1423.57-181.4a12 12 0 0 1 12-12h376a12 12 0 0 1 12 12v53a12 12 0 0 1-12 12h-376a12 12 0 0 1-12-12z" stroke="#fcce14" stroke-width="2" fill="none"/><use xlink:href="#b" transform="matrix(1,0,0,1,-1413.5675429104729,-193.3958049690999) translate(146.52126736111111 28.08376736111111)"/><use xlink:href="#f" transform="matrix(1,0,0,1,-1418.5675429104729,-150.8958049690999) translate(54.4618055555556 24.08376736111111)"/><path d="M-1423.57 178.6a12 12 0 0 1 12-12h376a12 12 0 0 1 12 12v53a12 12 0 0 1-12 12h-376a12 12 0 0 1-12-12z" fill="#fff3d9"/><path d="M-1423.57 206.6h400v25a12 12 0 0 1-12 12h-376a12 12 0 0 1-12-12z" fill="#fff3d9"/><path d="M-1422.57 206.6h398-398zM-1423.57 178.6a12 12 0 0 1 12-12h376a12 12 0 0 1 12 12v53a12 12 0 0 1-12 12h-376a12 12 0 0 1-12-12z" stroke="#fcce14" stroke-width="2" fill="none"/><use xlink:href="#g" transform="matrix(1,0,0,1,-1413.5675429104729,166.6041950309001) translate(128.38433159722223 28.08376736111111)"/><use xlink:href="#h" transform="matrix(1,0,0,1,-1418.5675429104729,209.1041950309001) translate(10.787760416666657 24.08376736111111)"/><path d="M-316.07-421.4a12 12 0 0 1 12-12h376a12 12 0 0 1 12 12v53a12 12 0 0 1-12 12h-376a12 12 0 0 1-12-12z" fill="#fe7070"/><path d="M-316.07-393.4h400v25a12 12 0 0 1-12 12h-376a12 12 0 0 1-12-12z" fill="#fe7070"/><path d="M-315.07-393.4h398-398zM-316.07-421.4a12 12 0 0 1 12-12h376a12 12 0 0 1 12 12v53a12 12 0 0 1-12 12h-376a12 12 0 0 1-12-12z" stroke="#e81313" stroke-width="2" fill="none"/><use xlink:href="#i" transform="matrix(1,0,0,1,-306.06754291047304,-433.3958049690999) translate(146.52126736111111 28.08376736111111)"/><use xlink:href="#j" transform="matrix(1,0,0,1,-311.06754291047304,-390.8958049690999) translate(61.134982638888914 24.08376736111111)"/><path d="M196.43-421.4a12 12 0 0 1 12-12h376a12 12 0 0 1 12 12v53a12 12 0 0 1-12 12h-376a12 12 0 0 1-12-12z" fill="#fe7070"/><path d="M196.43-393.4h400v25a12 12 0 0 1-12 12h-376a12 12 0 0 1-12-12z" fill="#fe7070"/><path d="M197.43-393.4h398-398zM196.43-421.4a12 12 0 0 1 12-12h376a12 12 0 0 1 12 12v53a12 12 0 0 1-12 12h-376a12 12 0 0 1-12-12z" stroke="#e81313" stroke-width="2" fill="none"/><use xlink:href="#k" transform="matrix(1,0,0,1,206.4324570895272,-433.3958049690999) translate(102.14735243055554 28.08376736111111)"/><use xlink:href="#l" transform="matrix(1,0,0,1,201.4324570895272,-390.8958049690999) translate(72.50651041666667 24.08376736111111)"/><path d="M-316.07-661.4a12 12 0 0 1 12-12h376a12 12 0 0 1 12 12v53a12 12 0 0 1-12 12h-376a12 12 0 0 1-12-12z" fill="#fe7070"/><path d="M-316.07-633.4h400v25a12 12 0 0 1-12 12h-376a12 12 0 0 1-12-12z" fill="#fe7070"/><path d="M-315.07-633.4h398-398zM-316.07-661.4a12 12 0 0 1 12-12h376a12 12 0 0 1 12 12v53a12 12 0 0 1-12 12h-376a12 12 0 0 1-12-12z" stroke="#e81313" stroke-width="2" fill="none"/><use xlink:href="#i" transform="matrix(1,0,0,1,-306.06754291047304,-673.3958049690999) translate(146.52126736111111 28.08376736111111)"/><use xlink:href="#m" transform="matrix(1,0,0,1,-311.06754291047304,-630.8958049690999) translate(48.011067708333314 24.08376736111111)"/><path d="M196.43-661.4a12 12 0 0 1 12-12h376a12 12 0 0 1 12 12v53a12 12 0 0 1-12 12h-376a12 12 0 0 1-12-12z" fill="#fe7070"/><path d="M196.43-633.4h400v25a12 12 0 0 1-12 12h-376a12 12 0 0 1-12-12z" fill="#fe7070"/><path d="M197.43-633.4h398-398zM196.43-661.4a12 12 0 0 1 12-12h376a12 12 0 0 1 12 12v53a12 12 0 0 1-12 12h-376a12 12 0 0 1-12-12z" stroke="#e81313" stroke-width="2" fill="none"/><use xlink:href="#n" transform="matrix(1,0,0,1,206.43245708952696,-673.3958049690999) translate(102.14735243055554 28.08376736111111)"/><use xlink:href="#o" transform="matrix(1,0,0,1,201.43245708952696,-630.8958049690999) translate(76.16319444444444 24.08376736111111)"/><path d="M-830.57-634.42h-47a6 6 0 0 0-6 6v367.62a6 6 0 0 0 6 6h1654.5" stroke="#3a414a" stroke-width="2" fill="none"/><path d="M-829.57-633.44h-1.02v-1.95h1.03z" stroke="#3a414a" stroke-width=".05" fill="#3a414a"/><path d="M792.2-254.8l-14.27 4.64v-9.27z" stroke="#3a414a" stroke-width="2" fill="#3a414a"/><path d="M-828.57-661.4a12 12 0 0 1 12-12h376a12 12 0 0 1 12 12v53a12 12 0 0 1-12 12h-376a12 12 0 0 1-12-12z" fill="#fe7070"/><path d="M-828.57-633.4h400v25a12 12 0 0 1-12 12h-376a12 12 0 0 1-12-12z" fill="#fe7070"/><path d="M-827.57-633.4h398-398zM-828.57-661.4a12 12 0 0 1 12-12h376a12 12 0 0 1 12 12v53a12 12 0 0 1-12 12h-376a12 12 0 0 1-12-12z" stroke="#e81313" stroke-width="2" fill="none"/><use xlink:href="#p" transform="matrix(1,0,0,1,-818.5675429104731,-673.3958049690999) translate(102.14735243055554 28.08376736111111)"/><use xlink:href="#q" transform="matrix(1,0,0,1,-823.5675429104731,-630.8958049690999) translate(40.42643229166666 24.08376736111111)"/><path d="M796.43-661.4a12 12 0 0 1 12-12h377.65a12 12 0 0 1 12 12v53a12 12 0 0 1-12 12H808.43a12 12 0 0 1-12-12z" fill="#e08fff"/><path d="M796.43-633.4h401.65v25a12 12 0 0 1-12 12H808.43a12 12 0 0 1-12-12z" fill="#e08fff"/><path d="M797.43-633.4h399.65-399.65zM796.43-661.4a12 12 0 0 1 12-12h377.65a12 12 0 0 1 12 12v53a12 12 0 0 1-12 12H808.43a12 12 0 0 1-12-12z" stroke="#ba23f6" stroke-width="2" fill="none"/><use xlink:href="#i" transform="matrix(1,0,0,1,806.4324570895271,-673.3958049690999) translate(147.52126736111111 28.08376736111111)"/><use xlink:href="#r" transform="matrix(1,0,0,1,801.4324570895271,-630.8958049690999) translate(64.896484375 24.08376736111111)"/><path d="M796.43-421.4a12 12 0 0 1 12-12h377.65a12 12 0 0 1 12 12v53a12 12 0 0 1-12 12H808.43a12 12 0 0 1-12-12z" fill="#e08fff"/><path d="M796.43-393.4h401.65v25a12 12 0 0 1-12 12H808.43a12 12 0 0 1-12-12z" fill="#e08fff"/><path d="M797.43-393.4h399.65-399.65zM796.43-421.4a12 12 0 0 1 12-12h377.65a12 12 0 0 1 12 12v53a12 12 0 0 1-12 12H808.43a12 12 0 0 1-12-12z" stroke="#ba23f6" stroke-width="2" fill="none"/><use xlink:href="#i" transform="matrix(1,0,0,1,806.4324570895271,-433.3958049690999) translate(147.52126736111111 28.08376736111111)"/><use xlink:href="#s" transform="matrix(1,0,0,1,801.4324570895271,-390.8958049690999) translate(61.8257378472222 24.08376736111111)"/><path d="M796.43-301.4a12 12 0 0 1 12-12h377.65a12 12 0 0 1 12 12v53a12 12 0 0 1-12 12H808.43a12 12 0 0 1-12-12z" fill="#e08fff"/><path d="M796.43-273.4h401.65v25a12 12 0 0 1-12 12H808.43a12 12 0 0 1-12-12z" fill="#e08fff"/><path d="M797.43-273.4h399.65-399.65zM796.43-301.4a12 12 0 0 1 12-12h377.65a12 12 0 0 1 12 12v53a12 12 0 0 1-12 12H808.43a12 12 0 0 1-12-12z" stroke="#ba23f6" stroke-width="2" fill="none"/><use xlink:href="#i" transform="matrix(1,0,0,1,806.4324570895271,-313.3958049690999) translate(147.52126736111111 28.08376736111111)"/><use xlink:href="#t" transform="matrix(1,0,0,1,801.4324570895271,-270.8958049690999) translate(103.50325520833336 24.08376736111111)"/><path d="M796.43-541.4a12 12 0 0 1 12-12h377.65a12 12 0 0 1 12 12v53a12 12 0 0 1-12 12H808.43a12 12 0 0 1-12-12z" fill="#e08fff"/><path d="M796.43-513.4h401.65v25a12 12 0 0 1-12 12H808.43a12 12 0 0 1-12-12z" fill="#e08fff"/><path d="M797.43-513.4h399.65-399.65zM796.43-541.4a12 12 0 0 1 12-12h377.65a12 12 0 0 1 12 12v53a12 12 0 0 1-12 12H808.43a12 12 0 0 1-12-12z" stroke="#ba23f6" stroke-width="2" fill="none"/><use xlink:href="#i" transform="matrix(1,0,0,1,806.4324570895271,-553.3958049690999) translate(147.52126736111111 28.08376736111111)"/><use xlink:href="#u" transform="matrix(1,0,0,1,801.4324570895271,-510.8958049690999) translate(125.51931423611113 24.08376736111111)"/><path d="M-825.57-374.9h-12a6 6 0 0 0-6 6v69.4a6 6 0 0 0 6 6h1614.5" stroke="#3a414a" stroke-width="2" fill="none"/><path d="M-824.57-373.92h-1.02v-1.95h1.03z" stroke="#3a414a" stroke-width=".05" fill="#3a414a"/><path d="M792.2-293.5l-14.27 4.65v-9.27z" stroke="#3a414a" stroke-width="2" fill="#3a414a"/><path d="M-823.57-421.4a12 12 0 0 1 12-12h376a12 12 0 0 1 12 12v53a12 12 0 0 1-12 12h-376a12 12 0 0 1-12-12z" fill="#fe7070"/><path d="M-823.57-393.4h400v25a12 12 0 0 1-12 12h-376a12 12 0 0 1-12-12z" fill="#fe7070"/><path d="M-822.57-393.4h398-398zM-823.57-421.4a12 12 0 0 1 12-12h376a12 12 0 0 1 12 12v53a12 12 0 0 1-12 12h-376a12 12 0 0 1-12-12z" stroke="#e81313" stroke-width="2" fill="none"/><use xlink:href="#p" transform="matrix(1,0,0,1,-813.5675429104729,-433.3958049690999) translate(102.14735243055554 28.08376736111111)"/><use xlink:href="#v" transform="matrix(1,0,0,1,-818.5675429104729,-390.8958049690999) translate(53.55034722222223 24.08376736111111)"/><path d="M598.43-394h9.92m9.92 0h19.83m9.9 0h19.85m9.9 0h19.85m9.9 0h19.85m9.9 0h19.85m9.9 0h9.93" stroke="#3a414a" stroke-width="2" fill="none"/><path d="M598.46-393.03h-1.03v-1.95h1.03z" stroke="#3a414a" stroke-width=".05" fill="#3a414a"/><path d="M792.2-394l-14.27 4.63v-9.27z" stroke="#3a414a" stroke-width="2" fill="#3a414a"/><path d="M597.43-634.2h10.95m10.94 0h21.9m10.93 0h21.9m10.94 0h19.93m9 0h18m9 0h18m9 0h9M597.46-634.2h-1.03" stroke="#3a414a" stroke-width="2" fill="none"/><path d="M792.2-634.2l-14.27 4.63v-9.26z" stroke="#3a414a" stroke-width="2" fill="#3a414a"/><path d="M-422.57-393.4h9.67m9.66 0h19.34m9.66 0h19.34m9.66 0h9.67M-422.54-393.4h-1.03" stroke="#3a414a" stroke-width="2" fill="none"/><path d="M-320.3-393.4l-14.27 4.64v-9.27z" stroke="#3a414a" stroke-width="2" fill="#3a414a"/><path d="M-426.57-632.77h10.1m10.12 0h20.23m10.1 0h20.23m10.12 0h10.1" stroke="#3a414a" stroke-width="2" fill="none"/><path d="M-426.54-631.8h-1.03v-1.95h1.03z" stroke="#3a414a" stroke-width=".05" fill="#3a414a"/><path d="M-320.3-632.77l-14.27 4.63v-9.27z" stroke="#3a414a" stroke-width="2" fill="#3a414a"/><path d="M194.43-392.45h-91" stroke="#3a414a" stroke-width="2" fill="none"/><path d="M195.43-391.48h-1.02v-1.95h1.03z" stroke="#3a414a" stroke-width=".05" fill="#3a414a"/><path d="M88.17-392.45l14.26-4.64v9.28z" stroke="#3a414a" stroke-width="2" fill="#3a414a"/><path d="M396.43-594.4v73.5a6 6 0 0 1-6 6h-500.5a6 6 0 0 0-6 6v56" stroke="#3a414a" stroke-width="2" fill="none"/><path d="M397.4-594.37h-1.94v-1.03h1.95z" stroke="#3a414a" stroke-width=".05" fill="#3a414a"/><path d="M-116.07-437.63l-4.63-14.27h9.27z" stroke="#3a414a" stroke-width="2" fill="#3a414a"/><path d="M194.43-633.27h-91" stroke="#3a414a" stroke-width="2" fill="none"/><path d="M195.43-632.3h-1.02v-1.95h1.03z" stroke="#3a414a" stroke-width=".05" fill="#3a414a"/><path d="M88.17-633.27l14.26-4.64v9.26z" stroke="#3a414a" stroke-width="2" fill="#3a414a"/><g fill="none"><path d="M-1023.57 272.6a6 6 0 0 0-6-6h-388a6 6 0 0 0-6 6v3a6 6 0 0 0 6 6h388a6 6 0 0 0 6-6z"/><path d="M-1423.57 266.6c0 13.8 11.2 25 25 25h150c13.8 0 25 11.2 25 25 0-13.8 11.2-25 25-25h150c13.8 0 25-11.2 25-25" stroke="#000" stroke-width="2"/></g><path d="M-1263.57 332.6a6 6 0 0 1 6-6h68a6 6 0 0 1 6 6v10a6 6 0 0 1-6 6h-68a6 6 0 0 1-6-6z" fill="none"/><use xlink:href="#w" transform="matrix(1,0,0,1,-1263.5675429104729,326.6041950309001) translate(0.0911458333333357 21.52777777777778)"/><g fill="none"><path d="M1197.06-207.4a6 6 0 0 0-6-6h-388a6 6 0 0 0-6 6v3a6 6 0 0 0 6 6h388a6 6 0 0 0 6-6z"/><path d="M797.06-213.4c0 13.8 11.2 25 25 25h150c13.8 0 25 11.2 25 25 0-13.8 11.2-25 25-25h150c13.8 0 25-11.2 25-25" stroke="#000" stroke-width="2"/></g><path d="M922.57-147.4a6 6 0 0 1 6-6h137.38a6 6 0 0 1 6 6v8a6 6 0 0 1-6 6H928.57a6 6 0 0 1-6-6z" fill="none"/><use xlink:href="#x" transform="matrix(1,0,0,1,922.5712746622835,-153.3958049690999) translate(3.6349826388889 21.52777777777778)"/><g fill="none"><path d="M596.43-193.9a.5.5 0 0 0-.5-.5h-1424a.5.5 0 0 0-.5.5.5.5 0 0 0 .5.5h1424a.5.5 0 0 0 .5-.5z"/><path d="M-828.57-194.4c0 49.2 39.88 89.07 89.06 89.07h534.37c49.2 0 89.06 39.87 89.06 89.06 0-49.2 39.88-89.06 89.06-89.06h534.37c49.2 0 89.06-39.88 89.06-89.07" stroke="#000" stroke-width="2"/></g><path d="M-190.75 12.6a6 6 0 0 1 6-6h137.37a6 6 0 0 1 6 6v8a6 6 0 0 1-6 6h-137.38a6 6 0 0 1-6-6z" fill="none"/><use xlink:href="#y" transform="matrix(1,0,0,1,-190.75467644325278,6.604195030900087) translate(16.09700520833335 21.52777777777778)"/><path d="M-1423.57-421.4a12 12 0 0 1 12-12h376a12 12 0 0 1 12 12v53a12 12 0 0 1-12 12h-376a12 12 0 0 1-12-12z" fill="#fff3d9"/><path d="M-1423.57-393.4h400v25a12 12 0 0 1-12 12h-376a12 12 0 0 1-12-12z" fill="#fff3d9"/><path d="M-1422.57-393.4h398-398zM-1423.57-421.4a12 12 0 0 1 12-12h376a12 12 0 0 1 12 12v53a12 12 0 0 1-12 12h-376a12 12 0 0 1-12-12z" stroke="#fcce14" stroke-width="2" fill="none"/><use xlink:href="#b" transform="matrix(1,0,0,1,-1413.5675429104729,-433.3958049690999) translate(146.52126736111111 28.08376736111111)"/><use xlink:href="#z" transform="matrix(1,0,0,1,-1418.5675429104729,-390.8958049690999) translate(137.138671875 24.08376736111111)"/><path d="M-1423.57-61.4a12 12 0 0 1 12-12h376a12 12 0 0 1 12 12v53a12 12 0 0 1-12 12h-376a12 12 0 0 1-12-12z" fill="#fff3d9"/><path d="M-1423.57-33.4h400v25a12 12 0 0 1-12 12h-376a12 12 0 0 1-12-12z" fill="#fff3d9"/><path d="M-1422.57-33.4h398-398zM-1423.57-61.4a12 12 0 0 1 12-12h376a12 12 0 0 1 12 12v53a12 12 0 0 1-12 12h-376a12 12 0 0 1-12-12z" stroke="#fcce14" stroke-width="2" fill="none"/><use xlink:href="#g" transform="matrix(1,0,0,1,-1413.5675429104729,-73.39580496909991) translate(128.38433159722223 28.08376736111111)"/><use xlink:href="#A" transform="matrix(1,0,0,1,-1418.5675429104729,-30.895804969099913) translate(123.466796875 24.08376736111111)"/><path d="M-1423.57 58.6a12 12 0 0 1 12-12h376a12 12 0 0 1 12 12v53a12 12 0 0 1-12 12h-376a12 12 0 0 1-12-12z" fill="#fff3d9"/><path d="M-1423.57 86.6h400v25a12 12 0 0 1-12 12h-376a12 12 0 0 1-12-12z" fill="#fff3d9"/><path d="M-1422.57 86.6h398-398zM-1423.57 58.6a12 12 0 0 1 12-12h376a12 12 0 0 1 12 12v53a12 12 0 0 1-12 12h-376a12 12 0 0 1-12-12z" stroke="#fcce14" stroke-width="2" fill="none"/><use xlink:href="#g" transform="matrix(1,0,0,1,-1413.5675429104729,46.60419503090009) translate(128.38433159722223 28.08376736111111)"/><use xlink:href="#B" transform="matrix(1,0,0,1,-1418.5675429104729,89.10419503090009) translate(112.52929687500001 24.08376736111111)"/><defs><path d="M657 26c-323 0-524-166-541-416h195c15 169 171 246 346 246 202 0 356-106 356-265 5-203-294-238-475-293-239-73-380-191-380-389 0-252 224-419 512-419 294 0 499 171 508 396H992c-17-145-151-228-328-228-193 0-321 102-321 242 0 156 175 211 284 241l149 41c160 44 422 134 422 412 0 244-197 432-541 432" id="C"/><path d="M598-1118v154H368v674c0 100 37 144 132 144 23 0 62-6 92-12L629-6c-37 13-88 20-134 20-193 0-307-107-307-290v-688H20v-154h168v-266h180v266h230" id="D"/><path d="M537 14c-226 0-379-139-379-422v-710h180v695c0 172 97 275 253 275 160 0 281-109 281-300v-670h181V0H879v-209C806-46 684 14 537 14" id="E"/><path d="M577 24c-279 0-473-224-473-580 0-354 195-576 474-576 218 0 287 134 324 193h14v-551h180V0H922v-173h-20C865-111 790 24 577 24zm27-161c203 0 314-172 314-421 0-247-108-413-314-413-212 0-317 181-317 413 0 235 108 421 317 421" id="F"/><path d="M628 24c-324 0-524-230-524-574 0-343 198-582 503-582 237 0 487 146 487 559v75H286c9 234 145 362 343 362 132 0 231-58 273-172l174 48C1024-91 857 24 628 24zM287-650h624c-17-190-120-322-304-322-192 0-309 151-320 322" id="G"/><path d="M338-670V0H158v-1118h173l1 207c72-158 192-221 342-221 226 0 378 139 378 422V0H872v-695c0-172-96-275-252-275-161 0-282 109-282 300" id="H"/><path d="M180 0v-1490h270l367 940c28 72 75 218 110 339 35-117 81-264 110-339l362-940h271V0h-187c2-448-5-837 7-1287-157 497-311 829-483 1287H842C666-458 514-784 354-1284c12 438 5 843 7 1284H180" id="I"/><path d="M613 24c-304 0-509-231-509-576 0-350 205-580 509-580 305 0 511 230 511 580 0 345-206 576-511 576zm0-161c226 0 329-195 329-415 0-222-103-419-329-419-223 0-326 196-326 419 0 220 103 415 326 415" id="J"/><path d="M338-1490V0H158v-1490h180" id="K"/><g id="a"><use transform="matrix(0.010850694444444444,0,0,0.010850694444444444,0,0)" xlink:href="#C"/><use transform="matrix(0.010850694444444444,0,0,0.010850694444444444,14.2578125,0)" xlink:href="#D"/><use transform="matrix(0.010850694444444444,0,0,0.010850694444444444,21.52777777777778,0)" xlink:href="#E"/><use transform="matrix(0.010850694444444444,0,0,0.010850694444444444,34.66796875,0)" xlink:href="#F"/><use transform="matrix(0.010850694444444444,0,0,0.010850694444444444,48.27473958333333,0)" xlink:href="#G"/><use transform="matrix(0.010850694444444444,0,0,0.010850694444444444,61.23046875,0)" xlink:href="#H"/><use transform="matrix(0.010850694444444444,0,0,0.010850694444444444,74.35980902777777,0)" xlink:href="#D"/><use transform="matrix(0.010850694444444444,0,0,0.010850694444444444,81.62977430555554,0)" xlink:href="#I"/><use transform="matrix(0.010850694444444444,0,0,0.010850694444444444,101.70355902777777,0)" xlink:href="#J"/><use transform="matrix(0.010850694444444444,0,0,0.010850694444444444,115.02821180555556,0)" xlink:href="#F"/><use transform="matrix(0.010850694444444444,0,0,0.010850694444444444,128.63498263888889,0)" xlink:href="#E"/><use transform="matrix(0.010850694444444444,0,0,0.010850694444444444,141.77517361111111,0)" xlink:href="#K"/><use transform="matrix(0.010850694444444444,0,0,0.010850694444444444,147.15711805555557,0)" xlink:href="#G"/></g><path d="M174-520v-126l944-476v196L406-588v12l712 338v194" id="L"/><path d="M783 20c-382 0-661-292-661-764 0-473 279-766 661-766 302 0 548 182 601 489h-190c-42-204-217-313-411-313-268 0-476 208-476 590 0 381 209 588 476 588 195 0 369-110 411-313h190c-52 303-296 489-601 489" id="M"/><path d="M471 26C259 26 90-98 90-318c0-256 228-303 435-329 202-27 287-16 287-108 0-139-79-219-234-219-161 0-248 86-283 164l-173-57c86-203 278-265 451-265 150 0 419 46 419 395V0H815v-152h-12C765-73 660 26 471 26zm31-159c199 0 310-134 310-271v-155c-30 35-226 55-295 64-131 17-246 59-246 186 0 116 97 176 231 176" id="N"/><path d="M538 24C308 24 148-78 108-271l171-41c32 123 123 178 257 178 156 0 256-77 256-169 0-77-54-128-164-154l-186-44c-203-48-300-148-300-305 0-192 176-326 414-326 230 0 351 112 402 269l-163 42c-31-80-94-158-238-158-133 0-233 69-233 162 0 83 57 129 188 160l169 40c203 48 298 149 298 302 0 196-179 339-441 339" id="O"/><path d="M1181-520L237-44v-194l712-338v-12L237-926v-196l944 476v126" id="P"/><g id="b"><use transform="matrix(0.010850694444444444,0,0,0.010850694444444444,0,0)" xlink:href="#L"/><use transform="matrix(0.010850694444444444,0,0,0.010850694444444444,14.702690972222221,0)" xlink:href="#M"/><use transform="matrix(0.010850694444444444,0,0,0.010850694444444444,30.93532986111111,0)" xlink:href="#K"/><use transform="matrix(0.010850694444444444,0,0,0.010850694444444444,36.31727430555556,0)" xlink:href="#N"/><use transform="matrix(0.010850694444444444,0,0,0.010850694444444444,48.79557291666667,0)" xlink:href="#O"/><use transform="matrix(0.010850694444444444,0,0,0.010850694444444444,60.52517361111112,0)" xlink:href="#O"/><use transform="matrix(0.010850694444444444,0,0,0.010850694444444444,72.25477430555556,0)" xlink:href="#P"/></g><g id="c"><use transform="matrix(0.010850694444444444,0,0,0.010850694444444444,0,0)" xlink:href="#C"/><use transform="matrix(0.010850694444444444,0,0,0.010850694444444444,14.2578125,0)" xlink:href="#D"/><use transform="matrix(0.010850694444444444,0,0,0.010850694444444444,21.52777777777778,0)" xlink:href="#E"/><use transform="matrix(0.010850694444444444,0,0,0.010850694444444444,34.66796875,0)" xlink:href="#F"/><use transform="matrix(0.010850694444444444,0,0,0.010850694444444444,48.27473958333333,0)" xlink:href="#G"/><use transform="matrix(0.010850694444444444,0,0,0.010850694444444444,61.23046875,0)" xlink:href="#H"/><use transform="matrix(0.010850694444444444,0,0,0.010850694444444444,74.35980902777777,0)" xlink:href="#D"/><use transform="matrix(0.010850694444444444,0,0,0.010850694444444444,81.62977430555554,0)" xlink:href="#I"/><use transform="matrix(0.010850694444444444,0,0,0.010850694444444444,101.70355902777777,0)" xlink:href="#J"/><use transform="matrix(0.010850694444444444,0,0,0.010850694444444444,115.02821180555556,0)" xlink:href="#F"/><use transform="matrix(0.010850694444444444,0,0,0.010850694444444444,128.63498263888889,0)" xlink:href="#G"/><use transform="matrix(0.010850694444444444,0,0,0.010850694444444444,141.59071180555554,0)" xlink:href="#K"/></g><path d="M180 0v-1490h908v168H370v486h669v168H370v500h727V0H180" id="Q"/><path d="M65 0l393-574-370-544h210c88 136 192 297 267 435 67-142 176-302 264-435h206L661-564 1053 0H844c-94-144-206-310-287-458C484-308 366-142 273 0H65" id="R"/><path d="M158 0v-1118h175l1 205c55-151 181-225 313-225 147 0 245 90 285 228 53-141 190-228 352-228 194 0 352 125 352 384V0h-181v-749c0-161-105-225-225-225-151 0-243 103-243 244V0H807v-767c0-124-93-207-219-207-131 0-250 92-250 270V0H158" id="S"/><path d="M645 0H180v-1490h484c435 0 692 280 692 742 0 466-257 748-711 748zM370-168h263c363 0 539-218 539-580 0-358-176-574-521-574H370v1154" id="T"/><g id="d"><use transform="matrix(0.010850694444444444,0,0,0.010850694444444444,0,0)" xlink:href="#Q"/><use transform="matrix(0.010850694444444444,0,0,0.010850694444444444,13.35720486111111,0)" xlink:href="#R"/><use transform="matrix(0.010850694444444444,0,0,0.010850694444444444,25.48828125,0)" xlink:href="#N"/><use transform="matrix(0.010850694444444444,0,0,0.010850694444444444,37.966579861111114,0)" xlink:href="#S"/><use transform="matrix(0.010850694444444444,0,0,0.010850694444444444,57.43272569444444,0)" xlink:href="#T"/><use transform="matrix(0.010850694444444444,0,0,0.010850694444444444,73.47005208333333,0)" xlink:href="#D"/><use transform="matrix(0.010850694444444444,0,0,0.010850694444444444,80.52300347222221,0)" xlink:href="#J"/></g><path d="M52 0l541-1490h220L1361 0h-200l-149-416H398L254 0H52zm404-582h497c-103-290-145-390-251-756-108 377-145 460-246 756" id="U"/><path d="M613 24c-304 0-509-231-509-576 0-350 205-580 509-580 216 0 392 114 453 309l-173 49c-33-115-133-197-280-197-223 0-326 196-326 419 0 220 103 415 326 415 150 0 252-85 285-206l172 49C1010-95 832 24 613 24" id="V"/><path d="M158 0v-1118h180V0H158zm91-1301c-68 0-125-53-125-119s57-119 125-119c69 0 126 53 126 119s-57 119-126 119" id="W"/><path d="M180 0v-1490h510c348 0 508 194 508 460 0 198-88 351-276 417L1256 0h-220L726-579c-117 2-238 0-356 1V0H180zm190-747h312c235 0 327-108 327-283 0-177-92-293-329-293H370v576" id="X"/><path d="M158 0v-1118h174v172h12c41-113 157-188 290-188 26 0 70 2 91 3v181c-11-2-60-10-108-10-161 0-279 109-279 260V0H158" id="Y"/><g id="e"><use transform="matrix(0.010850694444444444,0,0,0.010850694444444444,0,0)" xlink:href="#U"/><use transform="matrix(0.010850694444444444,0,0,0.010850694444444444,15.33203125,0)" xlink:href="#V"/><use transform="matrix(0.010850694444444444,0,0,0.010850694444444444,28.24435763888889,0)" xlink:href="#N"/><use transform="matrix(0.010850694444444444,0,0,0.010850694444444444,40.72265625,0)" xlink:href="#F"/><use transform="matrix(0.010850694444444444,0,0,0.010850694444444444,54.32942708333333,0)" xlink:href="#G"/><use transform="matrix(0.010850694444444444,0,0,0.010850694444444444,67.28515625,0)" xlink:href="#S"/><use transform="matrix(0.010850694444444444,0,0,0.010850694444444444,86.75130208333333,0)" xlink:href="#W"/><use transform="matrix(0.010850694444444444,0,0,0.010850694444444444,92.13324652777777,0)" xlink:href="#V"/><use transform="matrix(0.010850694444444444,0,0,0.010850694444444444,104.82855902777777,0)" xlink:href="#X"/><use transform="matrix(0.010850694444444444,0,0,0.010850694444444444,118.80425347222221,0)" xlink:href="#G"/><use transform="matrix(0.010850694444444444,0,0,0.010850694444444444,131.75998263888889,0)" xlink:href="#V"/><use transform="matrix(0.010850694444444444,0,0,0.010850694444444444,144.45529513888889,0)" xlink:href="#J"/><use transform="matrix(0.010850694444444444,0,0,0.010850694444444444,157.77994791666666,0)" xlink:href="#Y"/><use transform="matrix(0.010850694444444444,0,0,0.010850694444444444,165.7769097222222,0)" xlink:href="#F"/><use transform="matrix(0.010850694444444444,0,0,0.010850694444444444,179.38368055555554,0)" xlink:href="#T"/><use transform="matrix(0.010850694444444444,0,0,0.010850694444444444,195.42100694444443,0)" xlink:href="#D"/><use transform="matrix(0.010850694444444444,0,0,0.010850694444444444,202.47395833333331,0)" xlink:href="#J"/></g><path d="M158 418v-1536h174v179h20c37-59 106-193 324-193 279 0 474 222 474 576 0 356-194 580-473 580-213 0-288-135-325-197h-14v591H158zm492-555c209 0 317-186 317-421 0-232-105-413-317-413-206 0-314 166-314 413 0 249 111 421 314 421" id="Z"/><path d="M481 0L54-1118h197c107 314 236 620 325 951 87-331 217-637 324-951h197L670 0H481" id="aa"/><path d="M180 0v-1490h224l606 953c40 63 108 177 176 312-27-437-7-821-13-1265h190V0h-226C860-448 622-778 356-1262c27 476 11 792 15 1262H180" id="ab"/><g id="f"><use transform="matrix(0.010850694444444444,0,0,0.010850694444444444,0,0)" xlink:href="#X"/><use transform="matrix(0.010850694444444444,0,0,0.010850694444444444,13.975694444444445,0)" xlink:href="#G"/><use transform="matrix(0.010850694444444444,0,0,0.010850694444444444,26.931423611111104,0)" xlink:href="#O"/><use transform="matrix(0.010850694444444444,0,0,0.010850694444444444,38.66102430555555,0)" xlink:href="#Z"/><use transform="matrix(0.010850694444444444,0,0,0.010850694444444444,52.267795138888886,0)" xlink:href="#J"/><use transform="matrix(0.010850694444444444,0,0,0.010850694444444444,65.59244791666666,0)" xlink:href="#H"/><use transform="matrix(0.010850694444444444,0,0,0.010850694444444444,78.72178819444443,0)" xlink:href="#O"/><use transform="matrix(0.010850694444444444,0,0,0.010850694444444444,90.45138888888887,0)" xlink:href="#G"/><use transform="matrix(0.010850694444444444,0,0,0.010850694444444444,103.40711805555556,0)" xlink:href="#C"/><use transform="matrix(0.010850694444444444,0,0,0.010850694444444444,117.66493055555556,0)" xlink:href="#G"/><use transform="matrix(0.010850694444444444,0,0,0.010850694444444444,130.6206597222222,0)" xlink:href="#Y"/><use transform="matrix(0.010850694444444444,0,0,0.010850694444444444,139.3337673611111,0)" xlink:href="#aa"/><use transform="matrix(0.010850694444444444,0,0,0.010850694444444444,151.82291666666663,0)" xlink:href="#W"/><use transform="matrix(0.010850694444444444,0,0,0.010850694444444444,157.2048611111111,0)" xlink:href="#V"/><use transform="matrix(0.010850694444444444,0,0,0.010850694444444444,169.9001736111111,0)" xlink:href="#G"/><use transform="matrix(0.010850694444444444,0,0,0.010850694444444444,182.85590277777774,0)" xlink:href="#ab"/><use transform="matrix(0.010850694444444444,0,0,0.010850694444444444,199.59852430555551,0)" xlink:href="#J"/><use transform="matrix(0.010850694444444444,0,0,0.010850694444444444,212.9231770833333,0)" xlink:href="#D"/><use transform="matrix(0.010850694444444444,0,0,0.010850694444444444,219.97612847222217,0)" xlink:href="#G"/><use transform="matrix(0.010850694444444444,0,0,0.010850694444444444,232.93185763888883,0)" xlink:href="#O"/><use transform="matrix(0.010850694444444444,0,0,0.010850694444444444,244.6614583333333,0)" xlink:href="#T"/><use transform="matrix(0.010850694444444444,0,0,0.010850694444444444,260.6987847222222,0)" xlink:href="#D"/><use transform="matrix(0.010850694444444444,0,0,0.010850694444444444,267.75173611111103,0)" xlink:href="#J"/></g><path d="M370-1490V0H180v-1490h190" id="ac"/><path d="M678-1118v154H420V0H240v-964H20v-154h220v-149c0-194 155-293 318-293 85 0 141 18 168 30l-50 154c-19-6-47-17-97-17-111 0-159 58-159 166v109h258" id="ad"/><g id="g"><use transform="matrix(0.010850694444444444,0,0,0.010850694444444444,0,0)" xlink:href="#L"/><use transform="matrix(0.010850694444444444,0,0,0.010850694444444444,14.702690972222221,0)" xlink:href="#ac"/><use transform="matrix(0.010850694444444444,0,0,0.010850694444444444,20.670572916666664,0)" xlink:href="#H"/><use transform="matrix(0.010850694444444444,0,0,0.010850694444444444,33.79991319444444,0)" xlink:href="#D"/><use transform="matrix(0.010850694444444444,0,0,0.010850694444444444,40.852864583333336,0)" xlink:href="#G"/><use transform="matrix(0.010850694444444444,0,0,0.010850694444444444,53.80859375,0)" xlink:href="#Y"/><use transform="matrix(0.010850694444444444,0,0,0.010850694444444444,62.521701388888886,0)" xlink:href="#ad"/><use transform="matrix(0.010850694444444444,0,0,0.010850694444444444,70.39930555555556,0)" xlink:href="#N"/><use transform="matrix(0.010850694444444444,0,0,0.010850694444444444,82.87760416666667,0)" xlink:href="#V"/><use transform="matrix(0.010850694444444444,0,0,0.010850694444444444,95.57291666666666,0)" xlink:href="#G"/><use transform="matrix(0.010850694444444444,0,0,0.010850694444444444,108.52864583333334,0)" xlink:href="#P"/></g><g id="h"><use transform="matrix(0.010850694444444444,0,0,0.010850694444444444,0,0)" xlink:href="#Q"/><use transform="matrix(0.010850694444444444,0,0,0.010850694444444444,13.35720486111111,0)" xlink:href="#R"/><use transform="matrix(0.010850694444444444,0,0,0.010850694444444444,25.92230902777778,0)" xlink:href="#D"/><use transform="matrix(0.010850694444444444,0,0,0.010850694444444444,32.975260416666664,0)" xlink:href="#G"/><use transform="matrix(0.010850694444444444,0,0,0.010850694444444444,45.93098958333333,0)" xlink:href="#Y"/><use transform="matrix(0.010850694444444444,0,0,0.010850694444444444,54.64409722222221,0)" xlink:href="#H"/><use transform="matrix(0.010850694444444444,0,0,0.010850694444444444,67.77343749999999,0)" xlink:href="#N"/><use transform="matrix(0.010850694444444444,0,0,0.010850694444444444,80.2517361111111,0)" xlink:href="#K"/><use transform="matrix(0.010850694444444444,0,0,0.010850694444444444,85.63368055555554,0)" xlink:href="#U"/><use transform="matrix(0.010850694444444444,0,0,0.010850694444444444,100.96571180555556,0)" xlink:href="#V"/><use transform="matrix(0.010850694444444444,0,0,0.010850694444444444,113.87803819444441,0)" xlink:href="#N"/><use transform="matrix(0.010850694444444444,0,0,0.010850694444444444,126.35633680555556,0)" xlink:href="#F"/><use transform="matrix(0.010850694444444444,0,0,0.010850694444444444,139.96310763888889,0)" xlink:href="#G"/><use transform="matrix(0.010850694444444444,0,0,0.010850694444444444,152.91883680555554,0)" xlink:href="#S"/><use transform="matrix(0.010850694444444444,0,0,0.010850694444444444,172.38498263888889,0)" xlink:href="#W"/><use transform="matrix(0.010850694444444444,0,0,0.010850694444444444,177.76692708333334,0)" xlink:href="#V"/><use transform="matrix(0.010850694444444444,0,0,0.010850694444444444,190.46223958333331,0)" xlink:href="#X"/><use transform="matrix(0.010850694444444444,0,0,0.010850694444444444,204.43793402777777,0)" xlink:href="#G"/><use transform="matrix(0.010850694444444444,0,0,0.010850694444444444,217.39366319444443,0)" xlink:href="#V"/><use transform="matrix(0.010850694444444444,0,0,0.010850694444444444,230.08897569444443,0)" xlink:href="#J"/><use transform="matrix(0.010850694444444444,0,0,0.010850694444444444,243.4136284722222,0)" xlink:href="#Y"/><use transform="matrix(0.010850694444444444,0,0,0.010850694444444444,251.41059027777774,0)" xlink:href="#F"/><use transform="matrix(0.010850694444444444,0,0,0.010850694444444444,265.0173611111111,0)" xlink:href="#X"/><use transform="matrix(0.010850694444444444,0,0,0.010850694444444444,278.99305555555554,0)" xlink:href="#G"/><use transform="matrix(0.010850694444444444,0,0,0.010850694444444444,291.94878472222223,0)" xlink:href="#O"/><use transform="matrix(0.010850694444444444,0,0,0.010850694444444444,303.6783854166667,0)" xlink:href="#Z"/><use transform="matrix(0.010850694444444444,0,0,0.010850694444444444,317.28515625,0)" xlink:href="#J"/><use transform="matrix(0.010850694444444444,0,0,0.010850694444444444,330.60980902777777,0)" xlink:href="#H"/><use transform="matrix(0.010850694444444444,0,0,0.010850694444444444,343.73914930555554,0)" xlink:href="#O"/><use transform="matrix(0.010850694444444444,0,0,0.010850694444444444,355.46875,0)" xlink:href="#G"/></g><g id="i"><use transform="matrix(0.010850694444444444,0,0,0.010850694444444444,0,0)" xlink:href="#L"/><use transform="matrix(0.010850694444444444,0,0,0.010850694444444444,14.702690972222221,0)" xlink:href="#M"/><use transform="matrix(0.010850694444444444,0,0,0.010850694444444444,30.93532986111111,0)" xlink:href="#K"/><use transform="matrix(0.010850694444444444,0,0,0.010850694444444444,36.31727430555556,0)" xlink:href="#N"/><use transform="matrix(0.010850694444444444,0,0,0.010850694444444444,48.79557291666667,0)" xlink:href="#O"/><use transform="matrix(0.010850694444444444,0,0,0.010850694444444444,60.52517361111112,0)" xlink:href="#O"/><use transform="matrix(0.010850694444444444,0,0,0.010850694444444444,72.25477430555556,0)" xlink:href="#P"/></g><path d="M789 20c-398 0-667-293-667-764 0-473 273-766 655-766 315 0 558 198 612 487h-196c-61-191-204-311-415-311-262 0-471 207-471 590 0 380 208 588 482 588 249 0 420-165 425-427H828v-166h572v163c0 370-256 606-611 606" id="ae"/><g id="j"><use transform="matrix(0.010850694444444444,0,0,0.010850694444444444,0,0)" xlink:href="#ae"/><use transform="matrix(0.010850694444444444,0,0,0.010850694444444444,16.57986111111111,0)" xlink:href="#G"/><use transform="matrix(0.010850694444444444,0,0,0.010850694444444444,29.535590277777775,0)" xlink:href="#D"/><use transform="matrix(0.010850694444444444,0,0,0.010850694444444444,36.80555555555556,0)" xlink:href="#C"/><use transform="matrix(0.010850694444444444,0,0,0.010850694444444444,51.06336805555556,0)" xlink:href="#D"/><use transform="matrix(0.010850694444444444,0,0,0.010850694444444444,58.33333333333333,0)" xlink:href="#E"/><use transform="matrix(0.010850694444444444,0,0,0.010850694444444444,71.47352430555556,0)" xlink:href="#F"/><use transform="matrix(0.010850694444444444,0,0,0.010850694444444444,85.08029513888889,0)" xlink:href="#G"/><use transform="matrix(0.010850694444444444,0,0,0.010850694444444444,98.03602430555556,0)" xlink:href="#H"/><use transform="matrix(0.010850694444444444,0,0,0.010850694444444444,111.16536458333333,0)" xlink:href="#D"/><use transform="matrix(0.010850694444444444,0,0,0.010850694444444444,118.4353298611111,0)" xlink:href="#X"/><use transform="matrix(0.010850694444444444,0,0,0.010850694444444444,132.41102430555554,0)" xlink:href="#G"/><use transform="matrix(0.010850694444444444,0,0,0.010850694444444444,145.3667534722222,0)" xlink:href="#Z"/><use transform="matrix(0.010850694444444444,0,0,0.010850694444444444,158.97352430555554,0)" xlink:href="#J"/><use transform="matrix(0.010850694444444444,0,0,0.010850694444444444,172.29817708333331,0)" xlink:href="#Y"/><use transform="matrix(0.010850694444444444,0,0,0.010850694444444444,181.01128472222223,0)" xlink:href="#D"/><use transform="matrix(0.010850694444444444,0,0,0.010850694444444444,188.28124999999994,0)" xlink:href="#C"/><use transform="matrix(0.010850694444444444,0,0,0.010850694444444444,202.53906249999994,0)" xlink:href="#G"/><use transform="matrix(0.010850694444444444,0,0,0.010850694444444444,215.49479166666663,0)" xlink:href="#Y"/><use transform="matrix(0.010850694444444444,0,0,0.010850694444444444,224.20789930555551,0)" xlink:href="#aa"/><use transform="matrix(0.010850694444444444,0,0,0.010850694444444444,236.69704861111106,0)" xlink:href="#W"/><use transform="matrix(0.010850694444444444,0,0,0.010850694444444444,242.07899305555551,0)" xlink:href="#V"/><use transform="matrix(0.010850694444444444,0,0,0.010850694444444444,254.77430555555551,0)" xlink:href="#G"/></g><path d="M677 24c-213 0-288-135-325-197h-20V0H158v-1490h180v551h14c37-59 106-193 324-193 279 0 474 222 474 576 0 356-194 580-473 580zm-27-161c209 0 317-186 317-421 0-232-105-413-317-413-206 0-314 166-314 413 0 249 111 421 314 421" id="af"/><g id="k"><use transform="matrix(0.010850694444444444,0,0,0.010850694444444444,0,0)" xlink:href="#L"/><use transform="matrix(0.010850694444444444,0,0,0.010850694444444444,14.702690972222221,0)" xlink:href="#U"/><use transform="matrix(0.010850694444444444,0,0,0.010850694444444444,30.03472222222222,0)" xlink:href="#af"/><use transform="matrix(0.010850694444444444,0,0,0.010850694444444444,43.64149305555556,0)" xlink:href="#O"/><use transform="matrix(0.010850694444444444,0,0,0.010850694444444444,55.37109375,0)" xlink:href="#D"/><use transform="matrix(0.010850694444444444,0,0,0.010850694444444444,62.64105902777778,0)" xlink:href="#Y"/><use transform="matrix(0.010850694444444444,0,0,0.010850694444444444,71.00694444444444,0)" xlink:href="#N"/><use transform="matrix(0.010850694444444444,0,0,0.010850694444444444,83.48524305555556,0)" xlink:href="#V"/><use transform="matrix(0.010850694444444444,0,0,0.010850694444444444,96.18055555555556,0)" xlink:href="#D"/><use transform="matrix(0.010850694444444444,0,0,0.010850694444444444,103.45052083333333,0)" xlink:href="#M"/><use transform="matrix(0.010850694444444444,0,0,0.010850694444444444,119.68315972222221,0)" xlink:href="#K"/><use transform="matrix(0.010850694444444444,0,0,0.010850694444444444,125.06510416666666,0)" xlink:href="#N"/><use transform="matrix(0.010850694444444444,0,0,0.010850694444444444,137.54340277777777,0)" xlink:href="#O"/><use transform="matrix(0.010850694444444444,0,0,0.010850694444444444,149.27300347222223,0)" xlink:href="#O"/><use transform="matrix(0.010850694444444444,0,0,0.010850694444444444,161.00260416666669,0)" xlink:href="#P"/></g><path d="M180 0v-1490h510c348 0 508 209 508 474 0 266-160 477-507 477H370V0H180zm190-706h312c236 0 327-133 327-310 0-176-91-307-329-307H370v617" id="ag"/><g id="l"><use transform="matrix(0.010850694444444444,0,0,0.010850694444444444,0,0)" xlink:href="#ab"/><use transform="matrix(0.010850694444444444,0,0,0.010850694444444444,16.74262152777778,0)" xlink:href="#J"/><use transform="matrix(0.010850694444444444,0,0,0.010850694444444444,30.06727430555556,0)" xlink:href="#D"/><use transform="matrix(0.010850694444444444,0,0,0.010850694444444444,37.12022569444444,0)" xlink:href="#G"/><use transform="matrix(0.010850694444444444,0,0,0.010850694444444444,50.07595486111111,0)" xlink:href="#O"/><use transform="matrix(0.010850694444444444,0,0,0.010850694444444444,61.80555555555555,0)" xlink:href="#C"/><use transform="matrix(0.010850694444444444,0,0,0.010850694444444444,76.06336805555554,0)" xlink:href="#G"/><use transform="matrix(0.010850694444444444,0,0,0.010850694444444444,89.01909722222221,0)" xlink:href="#Y"/><use transform="matrix(0.010850694444444444,0,0,0.010850694444444444,97.73220486111111,0)" xlink:href="#aa"/><use transform="matrix(0.010850694444444444,0,0,0.010850694444444444,110.22135416666666,0)" xlink:href="#W"/><use transform="matrix(0.010850694444444444,0,0,0.010850694444444444,115.6032986111111,0)" xlink:href="#V"/><use transform="matrix(0.010850694444444444,0,0,0.010850694444444444,128.29861111111111,0)" xlink:href="#G"/><use transform="matrix(0.010850694444444444,0,0,0.010850694444444444,141.25434027777777,0)" xlink:href="#M"/><use transform="matrix(0.010850694444444444,0,0,0.010850694444444444,157.48697916666666,0)" xlink:href="#K"/><use transform="matrix(0.010850694444444444,0,0,0.010850694444444444,162.86892361111111,0)" xlink:href="#W"/><use transform="matrix(0.010850694444444444,0,0,0.010850694444444444,168.25086805555557,0)" xlink:href="#G"/><use transform="matrix(0.010850694444444444,0,0,0.010850694444444444,181.20659722222223,0)" xlink:href="#H"/><use transform="matrix(0.010850694444444444,0,0,0.010850694444444444,194.3359375,0)" xlink:href="#D"/><use transform="matrix(0.010850694444444444,0,0,0.010850694444444444,201.60590277777777,0)" xlink:href="#ag"/><use transform="matrix(0.010850694444444444,0,0,0.010850694444444444,215.67925347222223,0)" xlink:href="#J"/><use transform="matrix(0.010850694444444444,0,0,0.010850694444444444,229.00390625,0)" xlink:href="#Y"/><use transform="matrix(0.010850694444444444,0,0,0.010850694444444444,237.71701388888889,0)" xlink:href="#D"/></g><path d="M180 0v-1490h528c311 0 458 177 458 395 0 191-114 278-244 313v14c139 9 302 137 302 371 0 225-148 397-499 397H180zm190-168h350c232 0 321-102 321-231 0-149-120-277-311-277H370v508zm0-668h328c160 0 286-101 286-255 0-129-87-231-280-231H370v486" id="ah"/><path d="M140 405l46-156c120 36 205 19 263-150l32-93L54-1118h197c107 313 237 620 324 950 87-331 219-637 326-950h196L606 167c-68 178-176 259-334 259-64 0-113-12-132-21" id="ai"/><g id="m"><use transform="matrix(0.010850694444444444,0,0,0.010850694444444444,0,0)" xlink:href="#ae"/><use transform="matrix(0.010850694444444444,0,0,0.010850694444444444,16.57986111111111,0)" xlink:href="#G"/><use transform="matrix(0.010850694444444444,0,0,0.010850694444444444,29.535590277777775,0)" xlink:href="#D"/><use transform="matrix(0.010850694444444444,0,0,0.010850694444444444,36.80555555555556,0)" xlink:href="#C"/><use transform="matrix(0.010850694444444444,0,0,0.010850694444444444,51.06336805555556,0)" xlink:href="#D"/><use transform="matrix(0.010850694444444444,0,0,0.010850694444444444,58.33333333333333,0)" xlink:href="#E"/><use transform="matrix(0.010850694444444444,0,0,0.010850694444444444,71.47352430555556,0)" xlink:href="#F"/><use transform="matrix(0.010850694444444444,0,0,0.010850694444444444,85.08029513888889,0)" xlink:href="#G"/><use transform="matrix(0.010850694444444444,0,0,0.010850694444444444,98.03602430555556,0)" xlink:href="#H"/><use transform="matrix(0.010850694444444444,0,0,0.010850694444444444,111.16536458333333,0)" xlink:href="#D"/><use transform="matrix(0.010850694444444444,0,0,0.010850694444444444,118.21831597222221,0)" xlink:href="#O"/><use transform="matrix(0.010850694444444444,0,0,0.010850694444444444,129.94791666666666,0)" xlink:href="#ah"/><use transform="matrix(0.010850694444444444,0,0,0.010850694444444444,144.4878472222222,0)" xlink:href="#ai"/><use transform="matrix(0.010850694444444444,0,0,0.010850694444444444,156.97699652777774,0)" xlink:href="#M"/><use transform="matrix(0.010850694444444444,0,0,0.010850694444444444,173.20963541666663,0)" xlink:href="#K"/><use transform="matrix(0.010850694444444444,0,0,0.010850694444444444,178.59157986111111,0)" xlink:href="#N"/><use transform="matrix(0.010850694444444444,0,0,0.010850694444444444,191.06987847222223,0)" xlink:href="#O"/><use transform="matrix(0.010850694444444444,0,0,0.010850694444444444,202.79947916666666,0)" xlink:href="#O"/><use transform="matrix(0.010850694444444444,0,0,0.010850694444444444,214.52907986111111,0)" xlink:href="#C"/><use transform="matrix(0.010850694444444444,0,0,0.010850694444444444,228.78689236111111,0)" xlink:href="#G"/><use transform="matrix(0.010850694444444444,0,0,0.010850694444444444,241.74262152777777,0)" xlink:href="#Y"/><use transform="matrix(0.010850694444444444,0,0,0.010850694444444444,250.45572916666666,0)" xlink:href="#aa"/><use transform="matrix(0.010850694444444444,0,0,0.010850694444444444,262.94487847222223,0)" xlink:href="#W"/><use transform="matrix(0.010850694444444444,0,0,0.010850694444444444,268.3268229166667,0)" xlink:href="#V"/><use transform="matrix(0.010850694444444444,0,0,0.010850694444444444,281.0221354166667,0)" xlink:href="#G"/></g><g id="n"><use transform="matrix(0.010850694444444444,0,0,0.010850694444444444,0,0)" xlink:href="#L"/><use transform="matrix(0.010850694444444444,0,0,0.010850694444444444,14.702690972222221,0)" xlink:href="#U"/><use transform="matrix(0.010850694444444444,0,0,0.010850694444444444,30.03472222222222,0)" xlink:href="#af"/><use transform="matrix(0.010850694444444444,0,0,0.010850694444444444,43.64149305555556,0)" xlink:href="#O"/><use transform="matrix(0.010850694444444444,0,0,0.010850694444444444,55.37109375,0)" xlink:href="#D"/><use transform="matrix(0.010850694444444444,0,0,0.010850694444444444,62.64105902777778,0)" xlink:href="#Y"/><use transform="matrix(0.010850694444444444,0,0,0.010850694444444444,71.00694444444444,0)" xlink:href="#N"/><use transform="matrix(0.010850694444444444,0,0,0.010850694444444444,83.48524305555556,0)" xlink:href="#V"/><use transform="matrix(0.010850694444444444,0,0,0.010850694444444444,96.18055555555556,0)" xlink:href="#D"/><use transform="matrix(0.010850694444444444,0,0,0.010850694444444444,103.45052083333333,0)" xlink:href="#M"/><use transform="matrix(0.010850694444444444,0,0,0.010850694444444444,119.68315972222221,0)" xlink:href="#K"/><use transform="matrix(0.010850694444444444,0,0,0.010850694444444444,125.06510416666666,0)" xlink:href="#N"/><use transform="matrix(0.010850694444444444,0,0,0.010850694444444444,137.54340277777777,0)" xlink:href="#O"/><use transform="matrix(0.010850694444444444,0,0,0.010850694444444444,149.27300347222223,0)" xlink:href="#O"/><use transform="matrix(0.010850694444444444,0,0,0.010850694444444444,161.00260416666669,0)" xlink:href="#P"/></g><g id="o"><use transform="matrix(0.010850694444444444,0,0,0.010850694444444444,0,0)" xlink:href="#C"/><use transform="matrix(0.010850694444444444,0,0,0.010850694444444444,14.2578125,0)" xlink:href="#D"/><use transform="matrix(0.010850694444444444,0,0,0.010850694444444444,21.52777777777778,0)" xlink:href="#E"/><use transform="matrix(0.010850694444444444,0,0,0.010850694444444444,34.66796875,0)" xlink:href="#F"/><use transform="matrix(0.010850694444444444,0,0,0.010850694444444444,48.27473958333333,0)" xlink:href="#G"/><use transform="matrix(0.010850694444444444,0,0,0.010850694444444444,61.23046875,0)" xlink:href="#H"/><use transform="matrix(0.010850694444444444,0,0,0.010850694444444444,74.35980902777777,0)" xlink:href="#D"/><use transform="matrix(0.010850694444444444,0,0,0.010850694444444444,81.62977430555554,0)" xlink:href="#X"/><use transform="matrix(0.010850694444444444,0,0,0.010850694444444444,95.60546874999997,0)" xlink:href="#G"/><use transform="matrix(0.010850694444444444,0,0,0.010850694444444444,108.56119791666666,0)" xlink:href="#Z"/><use transform="matrix(0.010850694444444444,0,0,0.010850694444444444,122.16796874999997,0)" xlink:href="#J"/><use transform="matrix(0.010850694444444444,0,0,0.010850694444444444,135.49262152777777,0)" xlink:href="#O"/><use transform="matrix(0.010850694444444444,0,0,0.010850694444444444,147.22222222222223,0)" xlink:href="#W"/><use transform="matrix(0.010850694444444444,0,0,0.010850694444444444,152.60416666666669,0)" xlink:href="#D"/><use transform="matrix(0.010850694444444444,0,0,0.010850694444444444,159.65711805555557,0)" xlink:href="#J"/><use transform="matrix(0.010850694444444444,0,0,0.010850694444444444,172.98177083333334,0)" xlink:href="#Y"/><use transform="matrix(0.010850694444444444,0,0,0.010850694444444444,181.69487847222223,0)" xlink:href="#ai"/><use transform="matrix(0.010850694444444444,0,0,0.010850694444444444,194.29253472222223,0)" xlink:href="#ag"/><use transform="matrix(0.010850694444444444,0,0,0.010850694444444444,208.36588541666669,0)" xlink:href="#J"/><use transform="matrix(0.010850694444444444,0,0,0.010850694444444444,221.69053819444449,0)" xlink:href="#Y"/><use transform="matrix(0.010850694444444444,0,0,0.010850694444444444,230.40364583333331,0)" xlink:href="#D"/></g><g id="p"><use transform="matrix(0.010850694444444444,0,0,0.010850694444444444,0,0)" xlink:href="#L"/><use transform="matrix(0.010850694444444444,0,0,0.010850694444444444,14.702690972222221,0)" xlink:href="#U"/><use transform="matrix(0.010850694444444444,0,0,0.010850694444444444,30.03472222222222,0)" xlink:href="#af"/><use transform="matrix(0.010850694444444444,0,0,0.010850694444444444,43.64149305555556,0)" xlink:href="#O"/><use transform="matrix(0.010850694444444444,0,0,0.010850694444444444,55.37109375,0)" xlink:href="#D"/><use transform="matrix(0.010850694444444444,0,0,0.010850694444444444,62.64105902777778,0)" xlink:href="#Y"/><use transform="matrix(0.010850694444444444,0,0,0.010850694444444444,71.00694444444444,0)" xlink:href="#N"/><use transform="matrix(0.010850694444444444,0,0,0.010850694444444444,83.48524305555556,0)" xlink:href="#V"/><use transform="matrix(0.010850694444444444,0,0,0.010850694444444444,96.18055555555556,0)" xlink:href="#D"/><use transform="matrix(0.010850694444444444,0,0,0.010850694444444444,103.45052083333333,0)" xlink:href="#M"/><use transform="matrix(0.010850694444444444,0,0,0.010850694444444444,119.68315972222221,0)" xlink:href="#K"/><use transform="matrix(0.010850694444444444,0,0,0.010850694444444444,125.06510416666666,0)" xlink:href="#N"/><use transform="matrix(0.010850694444444444,0,0,0.010850694444444444,137.54340277777777,0)" xlink:href="#O"/><use transform="matrix(0.010850694444444444,0,0,0.010850694444444444,149.27300347222223,0)" xlink:href="#O"/><use transform="matrix(0.010850694444444444,0,0,0.010850694444444444,161.00260416666669,0)" xlink:href="#P"/></g><path d="M763 24c-353 0-583-224-583-531v-983h190v968c0 214 149 370 393 370 243 0 391-156 391-370v-968h190v983c0 307-230 531-581 531" id="aj"/><g id="q"><use transform="matrix(0.010850694444444444,0,0,0.010850694444444444,0,0)" xlink:href="#ae"/><use transform="matrix(0.010850694444444444,0,0,0.010850694444444444,16.57986111111111,0)" xlink:href="#G"/><use transform="matrix(0.010850694444444444,0,0,0.010850694444444444,29.535590277777775,0)" xlink:href="#D"/><use transform="matrix(0.010850694444444444,0,0,0.010850694444444444,36.80555555555556,0)" xlink:href="#C"/><use transform="matrix(0.010850694444444444,0,0,0.010850694444444444,51.06336805555556,0)" xlink:href="#D"/><use transform="matrix(0.010850694444444444,0,0,0.010850694444444444,58.33333333333333,0)" xlink:href="#E"/><use transform="matrix(0.010850694444444444,0,0,0.010850694444444444,71.47352430555556,0)" xlink:href="#F"/><use transform="matrix(0.010850694444444444,0,0,0.010850694444444444,85.08029513888889,0)" xlink:href="#G"/><use transform="matrix(0.010850694444444444,0,0,0.010850694444444444,98.03602430555556,0)" xlink:href="#H"/><use transform="matrix(0.010850694444444444,0,0,0.010850694444444444,111.16536458333333,0)" xlink:href="#D"/><use transform="matrix(0.010850694444444444,0,0,0.010850694444444444,118.21831597222221,0)" xlink:href="#O"/><use transform="matrix(0.010850694444444444,0,0,0.010850694444444444,129.94791666666666,0)" xlink:href="#ah"/><use transform="matrix(0.010850694444444444,0,0,0.010850694444444444,144.4878472222222,0)" xlink:href="#ai"/><use transform="matrix(0.010850694444444444,0,0,0.010850694444444444,156.97699652777774,0)" xlink:href="#M"/><use transform="matrix(0.010850694444444444,0,0,0.010850694444444444,173.20963541666663,0)" xlink:href="#K"/><use transform="matrix(0.010850694444444444,0,0,0.010850694444444444,178.59157986111111,0)" xlink:href="#N"/><use transform="matrix(0.010850694444444444,0,0,0.010850694444444444,191.06987847222223,0)" xlink:href="#O"/><use transform="matrix(0.010850694444444444,0,0,0.010850694444444444,202.79947916666666,0)" xlink:href="#O"/><use transform="matrix(0.010850694444444444,0,0,0.010850694444444444,214.52907986111111,0)" xlink:href="#aj"/><use transform="matrix(0.010850694444444444,0,0,0.010850694444444444,231.06553819444449,0)" xlink:href="#O"/><use transform="matrix(0.010850694444444444,0,0,0.010850694444444444,242.7951388888889,0)" xlink:href="#G"/><use transform="matrix(0.010850694444444444,0,0,0.010850694444444444,255.7508680555556,0)" xlink:href="#M"/><use transform="matrix(0.010850694444444444,0,0,0.010850694444444444,271.98350694444446,0)" xlink:href="#N"/><use transform="matrix(0.010850694444444444,0,0,0.010850694444444444,284.46180555555554,0)" xlink:href="#O"/><use transform="matrix(0.010850694444444444,0,0,0.010850694444444444,296.19140625,0)" xlink:href="#G"/></g><path d="M98-1322v-168h1126v168H757V0H567v-1322H98" id="ak"/><path d="M784 20c-382 0-662-292-662-764 0-473 280-766 662-766s660 293 660 766c0 472-278 764-660 764zm0-176c266 0 475-207 475-588 0-383-209-590-475-590-268 0-477 208-477 590 0 380 209 588 477 588" id="al"/><g id="r"><use transform="matrix(0.010850694444444444,0,0,0.010850694444444444,0,0)" xlink:href="#ak"/><use transform="matrix(0.010850694444444444,0,0,0.010850694444444444,12.955729166666666,0)" xlink:href="#ai"/><use transform="matrix(0.010850694444444444,0,0,0.010850694444444444,25.44487847222222,0)" xlink:href="#Z"/><use transform="matrix(0.010850694444444444,0,0,0.010850694444444444,39.05164930555556,0)" xlink:href="#G"/><use transform="matrix(0.010850694444444444,0,0,0.010850694444444444,52.00737847222222,0)" xlink:href="#al"/><use transform="matrix(0.010850694444444444,0,0,0.010850694444444444,68.99956597222223,0)" xlink:href="#Y"/><use transform="matrix(0.010850694444444444,0,0,0.010850694444444444,77.71267361111113,0)" xlink:href="#S"/><use transform="matrix(0.010850694444444444,0,0,0.010850694444444444,97.17881944444446,0)" xlink:href="#C"/><use transform="matrix(0.010850694444444444,0,0,0.010850694444444444,111.43663194444446,0)" xlink:href="#D"/><use transform="matrix(0.010850694444444444,0,0,0.010850694444444444,118.70659722222224,0)" xlink:href="#E"/><use transform="matrix(0.010850694444444444,0,0,0.010850694444444444,131.84678819444446,0)" xlink:href="#F"/><use transform="matrix(0.010850694444444444,0,0,0.010850694444444444,145.4535590277778,0)" xlink:href="#G"/><use transform="matrix(0.010850694444444444,0,0,0.010850694444444444,158.40928819444446,0)" xlink:href="#H"/><use transform="matrix(0.010850694444444444,0,0,0.010850694444444444,171.53862847222223,0)" xlink:href="#D"/><use transform="matrix(0.010850694444444444,0,0,0.010850694444444444,178.80859375,0)" xlink:href="#U"/><use transform="matrix(0.010850694444444444,0,0,0.010850694444444444,194.140625,0)" xlink:href="#F"/><use transform="matrix(0.010850694444444444,0,0,0.010850694444444444,207.74739583333331,0)" xlink:href="#N"/><use transform="matrix(0.010850694444444444,0,0,0.010850694444444444,220.22569444444449,0)" xlink:href="#Z"/><use transform="matrix(0.010850694444444444,0,0,0.010850694444444444,233.8324652777778,0)" xlink:href="#D"/><use transform="matrix(0.010850694444444444,0,0,0.010850694444444444,240.88541666666669,0)" xlink:href="#G"/><use transform="matrix(0.010850694444444444,0,0,0.010850694444444444,253.84114583333331,0)" xlink:href="#Y"/></g><path d="M180 0v-1490h190v644h782v-644h190V0h-190v-678H370V0H180" id="am"/><g id="s"><use transform="matrix(0.010850694444444444,0,0,0.010850694444444444,0,0)" xlink:href="#am"/><use transform="matrix(0.010850694444444444,0,0,0.010850694444444444,16.840277777777775,0)" xlink:href="#D"/><use transform="matrix(0.010850694444444444,0,0,0.010850694444444444,23.567708333333332,0)" xlink:href="#D"/><use transform="matrix(0.010850694444444444,0,0,0.010850694444444444,30.83767361111111,0)" xlink:href="#Z"/><use transform="matrix(0.010850694444444444,0,0,0.010850694444444444,44.44444444444444,0)" xlink:href="#ab"/><use transform="matrix(0.010850694444444444,0,0,0.010850694444444444,61.18706597222222,0)" xlink:href="#J"/><use transform="matrix(0.010850694444444444,0,0,0.010850694444444444,74.51171875,0)" xlink:href="#D"/><use transform="matrix(0.010850694444444444,0,0,0.010850694444444444,81.56467013888889,0)" xlink:href="#G"/><use transform="matrix(0.010850694444444444,0,0,0.010850694444444444,94.52039930555556,0)" xlink:href="#O"/><use transform="matrix(0.010850694444444444,0,0,0.010850694444444444,106.25,0)" xlink:href="#C"/><use transform="matrix(0.010850694444444444,0,0,0.010850694444444444,120.5078125,0)" xlink:href="#G"/><use transform="matrix(0.010850694444444444,0,0,0.010850694444444444,133.46354166666666,0)" xlink:href="#Y"/><use transform="matrix(0.010850694444444444,0,0,0.010850694444444444,142.17664930555554,0)" xlink:href="#aa"/><use transform="matrix(0.010850694444444444,0,0,0.010850694444444444,154.6657986111111,0)" xlink:href="#W"/><use transform="matrix(0.010850694444444444,0,0,0.010850694444444444,160.04774305555554,0)" xlink:href="#V"/><use transform="matrix(0.010850694444444444,0,0,0.010850694444444444,172.74305555555554,0)" xlink:href="#G"/><use transform="matrix(0.010850694444444444,0,0,0.010850694444444444,184.95008680555554,0)" xlink:href="#U"/><use transform="matrix(0.010850694444444444,0,0,0.010850694444444444,200.28211805555554,0)" xlink:href="#F"/><use transform="matrix(0.010850694444444444,0,0,0.010850694444444444,213.88888888888889,0)" xlink:href="#N"/><use transform="matrix(0.010850694444444444,0,0,0.010850694444444444,226.3671875,0)" xlink:href="#Z"/><use transform="matrix(0.010850694444444444,0,0,0.010850694444444444,239.97395833333331,0)" xlink:href="#D"/><use transform="matrix(0.010850694444444444,0,0,0.010850694444444444,247.0269097222222,0)" xlink:href="#G"/><use transform="matrix(0.010850694444444444,0,0,0.010850694444444444,259.9826388888889,0)" xlink:href="#Y"/></g><g id="t"><use transform="matrix(0.010850694444444444,0,0,0.010850694444444444,0,0)" xlink:href="#C"/><use transform="matrix(0.010850694444444444,0,0,0.010850694444444444,14.2578125,0)" xlink:href="#D"/><use transform="matrix(0.010850694444444444,0,0,0.010850694444444444,21.52777777777778,0)" xlink:href="#E"/><use transform="matrix(0.010850694444444444,0,0,0.010850694444444444,34.66796875,0)" xlink:href="#F"/><use transform="matrix(0.010850694444444444,0,0,0.010850694444444444,48.27473958333333,0)" xlink:href="#G"/><use transform="matrix(0.010850694444444444,0,0,0.010850694444444444,61.23046875,0)" xlink:href="#H"/><use transform="matrix(0.010850694444444444,0,0,0.010850694444444444,74.35980902777777,0)" xlink:href="#D"/><use transform="matrix(0.010850694444444444,0,0,0.010850694444444444,81.62977430555554,0)" xlink:href="#M"/><use transform="matrix(0.010850694444444444,0,0,0.010850694444444444,97.86241319444441,0)" xlink:href="#J"/><use transform="matrix(0.010850694444444444,0,0,0.010850694444444444,111.1870659722222,0)" xlink:href="#H"/><use transform="matrix(0.010850694444444444,0,0,0.010850694444444444,124.31640624999997,0)" xlink:href="#D"/><use transform="matrix(0.010850694444444444,0,0,0.010850694444444444,131.58637152777774,0)" xlink:href="#Y"/><use transform="matrix(0.010850694444444444,0,0,0.010850694444444444,139.5833333333333,0)" xlink:href="#J"/><use transform="matrix(0.010850694444444444,0,0,0.010850694444444444,152.90798611111106,0)" xlink:href="#K"/><use transform="matrix(0.010850694444444444,0,0,0.010850694444444444,158.28993055555551,0)" xlink:href="#K"/><use transform="matrix(0.010850694444444444,0,0,0.010850694444444444,163.67187499999997,0)" xlink:href="#G"/><use transform="matrix(0.010850694444444444,0,0,0.010850694444444444,176.62760416666663,0)" xlink:href="#Y"/></g><g id="u"><use transform="matrix(0.010850694444444444,0,0,0.010850694444444444,0,0)" xlink:href="#C"/><use transform="matrix(0.010850694444444444,0,0,0.010850694444444444,14.2578125,0)" xlink:href="#D"/><use transform="matrix(0.010850694444444444,0,0,0.010850694444444444,21.52777777777778,0)" xlink:href="#E"/><use transform="matrix(0.010850694444444444,0,0,0.010850694444444444,34.66796875,0)" xlink:href="#F"/><use transform="matrix(0.010850694444444444,0,0,0.010850694444444444,48.27473958333333,0)" xlink:href="#G"/><use transform="matrix(0.010850694444444444,0,0,0.010850694444444444,61.23046875,0)" xlink:href="#H"/><use transform="matrix(0.010850694444444444,0,0,0.010850694444444444,74.35980902777777,0)" xlink:href="#D"/><use transform="matrix(0.010850694444444444,0,0,0.010850694444444444,81.62977430555554,0)" xlink:href="#Q"/><use transform="matrix(0.010850694444444444,0,0,0.010850694444444444,94.98697916666666,0)" xlink:href="#H"/><use transform="matrix(0.010850694444444444,0,0,0.010850694444444444,108.11631944444441,0)" xlink:href="#D"/><use transform="matrix(0.010850694444444444,0,0,0.010850694444444444,115.3862847222222,0)" xlink:href="#W"/><use transform="matrix(0.010850694444444444,0,0,0.010850694444444444,120.76822916666664,0)" xlink:href="#D"/><use transform="matrix(0.010850694444444444,0,0,0.010850694444444444,128.4722222222222,0)" xlink:href="#ai"/></g><g id="v"><use transform="matrix(0.010850694444444444,0,0,0.010850694444444444,0,0)" xlink:href="#ae"/><use transform="matrix(0.010850694444444444,0,0,0.010850694444444444,16.57986111111111,0)" xlink:href="#G"/><use transform="matrix(0.010850694444444444,0,0,0.010850694444444444,29.535590277777775,0)" xlink:href="#D"/><use transform="matrix(0.010850694444444444,0,0,0.010850694444444444,36.80555555555556,0)" xlink:href="#C"/><use transform="matrix(0.010850694444444444,0,0,0.010850694444444444,51.06336805555556,0)" xlink:href="#D"/><use transform="matrix(0.010850694444444444,0,0,0.010850694444444444,58.33333333333333,0)" xlink:href="#E"/><use transform="matrix(0.010850694444444444,0,0,0.010850694444444444,71.47352430555556,0)" xlink:href="#F"/><use transform="matrix(0.010850694444444444,0,0,0.010850694444444444,85.08029513888889,0)" xlink:href="#G"/><use transform="matrix(0.010850694444444444,0,0,0.010850694444444444,98.03602430555556,0)" xlink:href="#H"/><use transform="matrix(0.010850694444444444,0,0,0.010850694444444444,111.16536458333333,0)" xlink:href="#D"/><use transform="matrix(0.010850694444444444,0,0,0.010850694444444444,118.4353298611111,0)" xlink:href="#X"/><use transform="matrix(0.010850694444444444,0,0,0.010850694444444444,132.41102430555554,0)" xlink:href="#G"/><use transform="matrix(0.010850694444444444,0,0,0.010850694444444444,145.3667534722222,0)" xlink:href="#Z"/><use transform="matrix(0.010850694444444444,0,0,0.010850694444444444,158.97352430555554,0)" xlink:href="#J"/><use transform="matrix(0.010850694444444444,0,0,0.010850694444444444,172.29817708333331,0)" xlink:href="#Y"/><use transform="matrix(0.010850694444444444,0,0,0.010850694444444444,181.01128472222223,0)" xlink:href="#D"/><use transform="matrix(0.010850694444444444,0,0,0.010850694444444444,188.28124999999994,0)" xlink:href="#aj"/><use transform="matrix(0.010850694444444444,0,0,0.010850694444444444,204.81770833333331,0)" xlink:href="#O"/><use transform="matrix(0.010850694444444444,0,0,0.010850694444444444,216.54730902777777,0)" xlink:href="#G"/><use transform="matrix(0.010850694444444444,0,0,0.010850694444444444,229.50303819444443,0)" xlink:href="#M"/><use transform="matrix(0.010850694444444444,0,0,0.010850694444444444,245.73567708333331,0)" xlink:href="#N"/><use transform="matrix(0.010850694444444444,0,0,0.010850694444444444,258.2139756944444,0)" xlink:href="#O"/><use transform="matrix(0.010850694444444444,0,0,0.010850694444444444,269.94357638888886,0)" xlink:href="#G"/></g><g id="w"><use transform="matrix(0.010850694444444444,0,0,0.010850694444444444,0,0)" xlink:href="#T"/><use transform="matrix(0.010850694444444444,0,0,0.010850694444444444,16.03732638888889,0)" xlink:href="#J"/><use transform="matrix(0.010850694444444444,0,0,0.010850694444444444,29.361979166666664,0)" xlink:href="#S"/><use transform="matrix(0.010850694444444444,0,0,0.010850694444444444,48.828125,0)" xlink:href="#N"/><use transform="matrix(0.010850694444444444,0,0,0.010850694444444444,61.30642361111112,0)" xlink:href="#W"/><use transform="matrix(0.010850694444444444,0,0,0.010850694444444444,66.68836805555556,0)" xlink:href="#H"/></g><g id="x"><use transform="matrix(0.010850694444444444,0,0,0.010850694444444444,0,0)" xlink:href="#ac"/><use transform="matrix(0.010850694444444444,0,0,0.010850694444444444,5.967881944444445,0)" xlink:href="#H"/><use transform="matrix(0.010850694444444444,0,0,0.010850694444444444,19.09722222222222,0)" xlink:href="#ad"/><use transform="matrix(0.010850694444444444,0,0,0.010850694444444444,27.32204861111111,0)" xlink:href="#Y"/><use transform="matrix(0.010850694444444444,0,0,0.010850694444444444,35.68793402777778,0)" xlink:href="#N"/><use transform="matrix(0.010850694444444444,0,0,0.010850694444444444,48.166232638888886,0)" xlink:href="#O"/><use transform="matrix(0.010850694444444444,0,0,0.010850694444444444,59.89583333333333,0)" xlink:href="#D"/><use transform="matrix(0.010850694444444444,0,0,0.010850694444444444,67.1657986111111,0)" xlink:href="#Y"/><use transform="matrix(0.010850694444444444,0,0,0.010850694444444444,75.53168402777777,0)" xlink:href="#E"/><use transform="matrix(0.010850694444444444,0,0,0.010850694444444444,88.671875,0)" xlink:href="#V"/><use transform="matrix(0.010850694444444444,0,0,0.010850694444444444,101.3671875,0)" xlink:href="#D"/><use transform="matrix(0.010850694444444444,0,0,0.010850694444444444,108.63715277777777,0)" xlink:href="#E"/><use transform="matrix(0.010850694444444444,0,0,0.010850694444444444,121.77734375,0)" xlink:href="#Y"/><use transform="matrix(0.010850694444444444,0,0,0.010850694444444444,129.77430555555554,0)" xlink:href="#G"/></g><g id="y"><use transform="matrix(0.010850694444444444,0,0,0.010850694444444444,0,0)" xlink:href="#U"/><use transform="matrix(0.010850694444444444,0,0,0.010850694444444444,15.33203125,0)" xlink:href="#Z"/><use transform="matrix(0.010850694444444444,0,0,0.010850694444444444,28.938802083333332,0)" xlink:href="#Z"/><use transform="matrix(0.010850694444444444,0,0,0.010850694444444444,42.545572916666664,0)" xlink:href="#K"/><use transform="matrix(0.010850694444444444,0,0,0.010850694444444444,47.92751736111111,0)" xlink:href="#W"/><use transform="matrix(0.010850694444444444,0,0,0.010850694444444444,53.30946180555556,0)" xlink:href="#V"/><use transform="matrix(0.010850694444444444,0,0,0.010850694444444444,66.22178819444443,0)" xlink:href="#N"/><use transform="matrix(0.010850694444444444,0,0,0.010850694444444444,78.70008680555554,0)" xlink:href="#D"/><use transform="matrix(0.010850694444444444,0,0,0.010850694444444444,85.97005208333331,0)" xlink:href="#W"/><use transform="matrix(0.010850694444444444,0,0,0.010850694444444444,91.35199652777776,0)" xlink:href="#J"/><use transform="matrix(0.010850694444444444,0,0,0.010850694444444444,104.67664930555553,0)" xlink:href="#H"/></g><path d="M157-1118h181V80c1 225-123 350-364 338V252c126 9 184-48 183-172v-1198zm91-183c-68 0-125-53-125-119s57-119 125-119c69 0 126 53 126 119s-57 119-126 119" id="an"/><g id="z"><use transform="matrix(0.010850694444444444,0,0,0.010850694444444444,0,0)" xlink:href="#C"/><use transform="matrix(0.010850694444444444,0,0,0.010850694444444444,14.2578125,0)" xlink:href="#E"/><use transform="matrix(0.010850694444444444,0,0,0.010850694444444444,27.39800347222222,0)" xlink:href="#af"/><use transform="matrix(0.010850694444444444,0,0,0.010850694444444444,41.00477430555556,0)" xlink:href="#an"/><use transform="matrix(0.010850694444444444,0,0,0.010850694444444444,46.38671875,0)" xlink:href="#G"/><use transform="matrix(0.010850694444444444,0,0,0.010850694444444444,59.342447916666664,0)" xlink:href="#V"/><use transform="matrix(0.010850694444444444,0,0,0.010850694444444444,72.03776041666666,0)" xlink:href="#D"/><use transform="matrix(0.010850694444444444,0,0,0.010850694444444444,79.30772569444443,0)" xlink:href="#T"/><use transform="matrix(0.010850694444444444,0,0,0.010850694444444444,95.34505208333331,0)" xlink:href="#D"/><use transform="matrix(0.010850694444444444,0,0,0.010850694444444444,102.3980034722222,0)" xlink:href="#J"/></g><g id="A"><use transform="matrix(0.010850694444444444,0,0,0.010850694444444444,0,0)" xlink:href="#Q"/><use transform="matrix(0.010850694444444444,0,0,0.010850694444444444,13.35720486111111,0)" xlink:href="#R"/><use transform="matrix(0.010850694444444444,0,0,0.010850694444444444,25.92230902777778,0)" xlink:href="#D"/><use transform="matrix(0.010850694444444444,0,0,0.010850694444444444,32.975260416666664,0)" xlink:href="#G"/><use transform="matrix(0.010850694444444444,0,0,0.010850694444444444,45.93098958333333,0)" xlink:href="#Y"/><use transform="matrix(0.010850694444444444,0,0,0.010850694444444444,54.64409722222221,0)" xlink:href="#H"/><use transform="matrix(0.010850694444444444,0,0,0.010850694444444444,67.77343749999999,0)" xlink:href="#N"/><use transform="matrix(0.010850694444444444,0,0,0.010850694444444444,80.2517361111111,0)" xlink:href="#K"/><use transform="matrix(0.010850694444444444,0,0,0.010850694444444444,85.63368055555554,0)" xlink:href="#Q"/><use transform="matrix(0.010850694444444444,0,0,0.010850694444444444,98.99088541666666,0)" xlink:href="#R"/><use transform="matrix(0.010850694444444444,0,0,0.010850694444444444,111.12196180555556,0)" xlink:href="#N"/><use transform="matrix(0.010850694444444444,0,0,0.010850694444444444,123.60026041666666,0)" xlink:href="#S"/></g><g id="B"><use transform="matrix(0.010850694444444444,0,0,0.010850694444444444,0,0)" xlink:href="#Q"/><use transform="matrix(0.010850694444444444,0,0,0.010850694444444444,13.35720486111111,0)" xlink:href="#R"/><use transform="matrix(0.010850694444444444,0,0,0.010850694444444444,25.92230902777778,0)" xlink:href="#D"/><use transform="matrix(0.010850694444444444,0,0,0.010850694444444444,32.975260416666664,0)" xlink:href="#G"/><use transform="matrix(0.010850694444444444,0,0,0.010850694444444444,45.93098958333333,0)" xlink:href="#Y"/><use transform="matrix(0.010850694444444444,0,0,0.010850694444444444,54.64409722222221,0)" xlink:href="#H"/><use transform="matrix(0.010850694444444444,0,0,0.010850694444444444,67.77343749999999,0)" xlink:href="#N"/><use transform="matrix(0.010850694444444444,0,0,0.010850694444444444,80.2517361111111,0)" xlink:href="#K"/><use transform="matrix(0.010850694444444444,0,0,0.010850694444444444,85.63368055555554,0)" xlink:href="#C"/><use transform="matrix(0.010850694444444444,0,0,0.010850694444444444,99.89149305555556,0)" xlink:href="#E"/><use transform="matrix(0.010850694444444444,0,0,0.010850694444444444,113.03168402777777,0)" xlink:href="#af"/><use transform="matrix(0.010850694444444444,0,0,0.010850694444444444,126.6384548611111,0)" xlink:href="#an"/><use transform="matrix(0.010850694444444444,0,0,0.010850694444444444,132.02039930555554,0)" xlink:href="#G"/><use transform="matrix(0.010850694444444444,0,0,0.010850694444444444,144.9761284722222,0)" xlink:href="#V"/><use transform="matrix(0.010850694444444444,0,0,0.010850694444444444,157.6714409722222,0)" xlink:href="#D"/></g></defs></g></svg>